<?xml version="1.0" encoding="UTF-8"?>
<svg id="Camada_1" data-name="Camada 1" xmlns="http://www.w3.org/2000/svg" viewBox="0 0 927.29 233.63">
  <defs>
    <style>
      .cls-1 {
        fill: #f9820b;
      }

      .cls-2 {
        fill: #33a2e5;
      }

      .cls-3 {
        fill: #eae9e8;
      }
    </style>
  </defs>
  <g>
    <g>
      <path class="cls-2" d="M315.69,147.05c-5.07,0-9.39-.43-12.95-1.3-3.56-.87-6.45-2.06-8.67-3.56-2.21-1.51-3.88-3.19-5.01-5.06-1.12-1.86-1.78-3.82-1.97-5.87h12.23c.32,1.22,1.03,2.39,2.12,3.51,1.09,1.12,2.79,2.06,5.1,2.79,2.31.74,5.36,1.11,9.15,1.11,3.59,0,6.51-.3,8.76-.92,2.25-.61,3.88-1.43,4.91-2.46s1.54-2.21,1.54-3.56-.56-2.46-1.68-3.52c-1.12-1.06-3.13-1.78-6.02-2.17l-16.56-2.22c-6.23-.77-10.83-2.28-13.82-4.52-2.99-2.25-4.48-5.33-4.48-9.25,0-2.18.54-4.2,1.64-6.07,1.09-1.86,2.73-3.47,4.91-4.81,2.18-1.35,4.93-2.41,8.23-3.18,3.31-.77,7.17-1.16,11.6-1.16,5.84,0,10.66.61,14.44,1.83,3.79,1.22,6.66,2.94,8.62,5.15,1.96,2.21,3.16,4.8,3.61,7.75h-12.23c-.32-1.22-1-2.29-2.02-3.23-1.03-.93-2.57-1.68-4.62-2.26-2.05-.58-4.75-.87-8.09-.87-3.08,0-5.67.27-7.75.82-2.09.55-3.63,1.28-4.62,2.21-1,.93-1.49,2.04-1.49,3.32,0,1.48.64,2.63,1.93,3.47,1.28.84,3.14,1.41,5.59,1.73l17.04,2.31c3.6.45,6.77,1.22,9.53,2.31,2.76,1.09,4.91,2.57,6.45,4.43,1.54,1.86,2.31,4.33,2.31,7.42,0,2.63-.64,4.93-1.93,6.89-1.29,1.96-3.13,3.6-5.54,4.91-2.41,1.32-5.31,2.31-8.72,2.99-3.4.67-7.26,1.01-11.56,1.01Z"/>
      <path class="cls-2" d="M349.24,100.14h0c0-2.26,1.84-4.1,4.1-4.1h1.19c2.26,0,4.1,1.84,4.1,4.1h0c0,2.26-1.84,4.1-4.1,4.1h-1.19c-2.26,0-4.1-1.84-4.1-4.1ZM349.52,146.07v-36.02h8.76v36.02h-8.76Z"/>
      <path class="cls-2" d="M385.33,147.05c-3.69,0-6.83-.31-9.43-.94-2.59-.63-4.7-1.5-6.31-2.59-1.61-1.1-2.83-2.32-3.64-3.68-.82-1.35-1.3-2.78-1.44-4.27h8.9c.23.89.75,1.74,1.54,2.56.79.82,2.03,1.5,3.71,2.03,1.68.54,3.9.81,6.66.81,2.62,0,4.74-.22,6.38-.67,1.63-.44,2.83-1.04,3.57-1.79.75-.75,1.12-1.61,1.12-2.59s-.41-1.79-1.23-2.56c-.82-.77-2.28-1.3-4.38-1.58l-12.05-1.61c-4.53-.56-7.88-1.66-10.06-3.29-2.17-1.64-3.26-3.88-3.26-6.73,0-1.59.4-3.06,1.19-4.41.79-1.35,1.99-2.52,3.57-3.5,1.59-.98,3.59-1.75,5.99-2.31,2.41-.56,5.22-.84,8.44-.84,4.25,0,7.75.44,10.51,1.33,2.76.89,4.85,2.14,6.27,3.75,1.42,1.61,2.3,3.49,2.63,5.64h-8.9c-.23-.89-.72-1.67-1.47-2.35-.75-.68-1.87-1.23-3.36-1.65-1.5-.42-3.46-.63-5.89-.63-2.24,0-4.12.2-5.64.6-1.52.4-2.64.93-3.36,1.61-.72.68-1.09,1.48-1.09,2.42,0,1.08.47,1.92,1.4,2.52.93.61,2.29,1.03,4.06,1.26l12.4,1.68c2.62.33,4.93.89,6.94,1.68,2.01.8,3.57,1.87,4.7,3.22,1.12,1.36,1.68,3.15,1.68,5.4,0,1.92-.47,3.59-1.4,5.01-.94,1.43-2.28,2.62-4.03,3.57-1.75.96-3.87,1.68-6.34,2.17-2.48.49-5.28.73-8.41.73Z"/>
      <path class="cls-3" d="M433.26,147.05c-4.77,0-8.9-.79-12.4-2.38-3.5-1.59-6.2-3.81-8.09-6.66-1.89-2.85-2.84-6.19-2.84-10.02,0-2.24.35-4.35,1.05-6.31.7-1.96,1.7-3.71,3.01-5.26,1.31-1.54,2.92-2.86,4.83-3.96,1.92-1.1,4.08-1.94,6.48-2.52,2.41-.58,5.06-.88,7.95-.88,4.11,0,7.71.54,10.79,1.61,3.08,1.08,5.57,2.57,7.46,4.49,1.89,1.92,3.07,4.16,3.54,6.73h-9.11c-.56-1.17-1.39-2.23-2.49-3.19-1.1-.96-2.5-1.73-4.2-2.31-1.71-.58-3.7-.88-5.99-.88-1.92,0-3.63.21-5.15.63-1.52.42-2.85.99-3.99,1.72-1.14.72-2.1,1.61-2.87,2.66-.77,1.05-1.34,2.21-1.72,3.47-.37,1.26-.56,2.59-.56,3.99,0,2.43.54,4.58,1.61,6.45,1.07,1.87,2.66,3.36,4.77,4.49,2.1,1.12,4.74,1.68,7.92,1.68,3.41,0,6.12-.62,8.13-1.86,2.01-1.24,3.53-2.74,4.56-4.52h9.11c-.56,2.52-1.78,4.76-3.64,6.69-1.87,1.94-4.33,3.45-7.39,4.52-3.06,1.07-6.65,1.61-10.76,1.61Z"/>
      <path class="cls-3" d="M482.88,147.05c-4.77,0-8.9-.78-12.4-2.35-3.5-1.56-6.2-3.78-8.09-6.66-1.89-2.87-2.84-6.23-2.84-10.06,0-2.24.35-4.35,1.05-6.31.7-1.96,1.72-3.71,3.05-5.26,1.33-1.54,2.94-2.87,4.83-3.99,1.89-1.12,4.05-1.96,6.48-2.52,2.43-.56,5.07-.84,7.92-.84,4.81,0,8.97.78,12.47,2.35,3.5,1.57,6.19,3.76,8.06,6.59,1.87,2.83,2.8,6.16,2.8,9.99,0,2.34-.34,4.48-1.02,6.45-.68,1.96-1.68,3.72-3.01,5.26-1.33,1.54-2.94,2.86-4.83,3.96-1.89,1.1-4.05,1.94-6.48,2.52-2.43.58-5.09.88-7.99.88ZM482.88,140.61c1.92,0,3.63-.21,5.15-.63,1.52-.42,2.85-1.02,3.99-1.79,1.14-.77,2.1-1.67,2.87-2.7.77-1.03,1.34-2.18,1.72-3.47.37-1.28.56-2.63.56-4.03,0-2.34-.53-4.45-1.58-6.34-1.05-1.89-2.63-3.39-4.73-4.48-2.1-1.1-4.77-1.65-7.99-1.65-1.87,0-3.56.21-5.08.63-1.52.42-2.85,1-3.99,1.75-1.15.75-2.1,1.65-2.87,2.7-.77,1.05-1.34,2.2-1.72,3.43-.37,1.24-.56,2.56-.56,3.96,0,2.34.53,4.46,1.58,6.38,1.05,1.92,2.64,3.43,4.77,4.56,2.13,1.12,4.75,1.68,7.88,1.68Z"/>
      <path class="cls-3" d="M512.31,146.07v-36.02h8.76v7.62s1.48-2.62,3.19-4.12c1.71-1.49,3.73-2.62,6.06-3.36,2.34-.75,4.88-1.12,7.64-1.12s5.22.37,7.39,1.12c2.17.75,4.01,1.83,5.5,3.26,1.49,1.43,2.64,3.2,3.43,5.33.79,2.13,1.19,4.57,1.19,7.32v19.97h-8.76v-18.22c0-2.52-.43-4.7-1.3-6.52-.87-1.82-2.18-3.22-3.96-4.2-1.78-.98-4.04-1.47-6.8-1.47s-5.15.55-7.18,1.65c-2.03,1.1-3.61,2.59-4.73,4.48-1.12,1.89-1.68,4.01-1.68,6.34v17.94h-8.76Z"/>
      <path class="cls-3" d="M634.31,147.05c-4.77,0-8.9-.79-12.4-2.38-3.5-1.59-6.2-3.81-8.09-6.66-1.89-2.85-2.84-6.19-2.84-10.02,0-2.24.35-4.35,1.05-6.31.7-1.96,1.7-3.71,3.01-5.26,1.31-1.54,2.92-2.86,4.83-3.96,1.92-1.1,4.08-1.94,6.48-2.52,2.41-.58,5.06-.88,7.95-.88,4.11,0,7.71.54,10.79,1.61,3.08,1.08,5.57,2.57,7.46,4.49,1.89,1.92,3.07,4.16,3.54,6.73h-9.11c-.56-1.17-1.39-2.23-2.49-3.19-1.1-.96-2.5-1.73-4.2-2.31-1.71-.58-3.7-.88-5.99-.88-1.92,0-3.63.21-5.15.63-1.52.42-2.85.99-3.99,1.72-1.14.72-2.1,1.61-2.87,2.66-.77,1.05-1.34,2.21-1.72,3.47-.37,1.26-.56,2.59-.56,3.99,0,2.43.54,4.58,1.61,6.45,1.07,1.87,2.66,3.36,4.77,4.49,2.1,1.12,4.74,1.68,7.92,1.68,3.41,0,6.12-.62,8.13-1.86,2.01-1.24,3.53-2.74,4.55-4.52h9.11c-.56,2.52-1.77,4.76-3.64,6.69-1.87,1.94-4.33,3.45-7.39,4.52-3.06,1.07-6.65,1.61-10.76,1.61Z"/>
      <path class="cls-3" d="M606,124.68s.19-.05.19-.05c-1.15-7.03-5.9-12.32-12.71-14.33-2.78-.82-5.83-1.23-9.14-1.23-2.9,0-5.55.29-7.95.88-2.41.58-4.54,1.43-6.41,2.52-1.87,1.1-3.46,2.42-4.77,3.96-1.31,1.54-2.31,3.29-3.01,5.26-.7,1.96-1.05,4.06-1.05,6.31,0,3.83.95,7.17,2.84,10.02,1.89,2.85,4.57,5.07,8.02,6.66,3.46,1.59,7.52,2.38,12.19,2.38,4.39,0,8.07-.5,11.04-1.51,2.97-1,5.3-2.34,7.01-3.99,1.7-1.66,2.91-3.54,3.61-5.64h-9.11c-1.03,1.59-2.55,2.8-4.55,3.64-2.01.84-4.6,1.26-7.78,1.26s-5.85-.55-8.02-1.65c-2.17-1.1-3.8-2.62-4.87-4.56-.11-.2-.19-.41-.29-.62,0,0,34.78-9.32,34.78-9.32ZM570.5,123.82c.4-1.28.98-2.45,1.75-3.5.77-1.05,1.74-1.95,2.91-2.7,1.17-.75,2.51-1.32,4.03-1.72,1.52-.4,3.21-.6,5.08-.6s3.56.2,5.08.6c1.52.4,2.86.99,4.03,1.79,1.17.8,2.1,1.78,2.8,2.94.19.31.36.64.51.99,0,0,0,0,0,0l-26.74,7.17c-.01-.27-.04-.52-.04-.79,0-1.49.2-2.88.6-4.17Z"/>
    </g>
    <path class="cls-1" d="M669.19,140.19h0c0-3.25,2.64-5.89,5.89-5.89h.07c3.25,0,5.89,2.64,5.89,5.89h0c0,3.25-2.64,5.89-5.89,5.89h-.07c-3.25,0-5.89-2.64-5.89-5.89Z"/>
    <path class="cls-1" d="M694.82,146.07v-38.47h-20.6v-11.56h56.62v11.56h-20.53v38.47h-15.49Z"/>
    <path class="cls-1" d="M772.88,146.07h16.89l-24.11-50.04h-18.36l-24.18,50.04h15.63l4.41-9.67h25.33l4.39,9.67ZM748.27,125.19l7.58-16.64,7.55,16.64h-15.13Z"/>
    <g>
      <path class="cls-3" d="M810.16,140.92c.58-.56,1.4-1.16,2.44-1.77,1.06-.63,2.35-1.3,3.85-1.98l4.97-2.29c2.24-1.04,4.06-2.06,5.41-3.02,1.39-.99,2.4-2.04,3.02-3.13.62-1.1.94-2.33.94-3.66,0-1.71-.55-3.21-1.63-4.43-1.06-1.21-2.58-2.15-4.53-2.78-1.92-.63-4.25-.95-6.95-.95s-5.09.33-7.04.99c-1.98.67-3.56,1.65-4.68,2.94-1.14,1.3-1.78,2.9-1.91,4.76l-.03.39h4.67l.05-.31c.27-1.61,1.13-2.8,2.63-3.64,1.53-.86,3.67-1.29,6.36-1.29s4.75.4,6.19,1.18c1.39.75,2.06,1.78,2.06,3.15,0,.7-.2,1.37-.58,1.98-.4.63-1.06,1.26-1.96,1.89-.93.65-2.17,1.34-3.69,2.04l-6.13,2.87c-1.74.81-3.25,1.62-4.49,2.41-1.25.8-2.29,1.62-3.09,2.44-.82.83-1.43,1.7-1.82,2.59-.39.9-.59,1.86-.59,2.87v1.73h27.44v-3.84h-21.8c.21-.38.51-.76.91-1.13Z"/>
      <path class="cls-3" d="M857.3,118.7c-2.28-1.16-4.94-1.75-7.91-1.75-1.47,0-2.88.15-4.19.44-1.32.29-2.56.73-3.68,1.31-1.12.58-2.15,1.3-3.07,2.13-.91.84-1.7,1.82-2.34,2.92-.64,1.1-1.13,2.33-1.45,3.65-.33,1.32-.5,2.76-.5,4.28,0,3.06.66,5.72,1.95,7.91,1.3,2.2,3.12,3.91,5.41,5.09,2.28,1.17,4.93,1.77,7.87,1.77,1.46,0,2.88-.15,4.22-.45,1.33-.3,2.57-.75,3.7-1.33,1.13-.58,2.15-1.3,3.05-2.13.9-.83,1.69-1.81,2.34-2.92.65-1.1,1.15-2.33,1.48-3.65.33-1.32.5-2.76.5-4.28,0-3.08-.66-5.75-1.95-7.93-1.3-2.18-3.12-3.88-5.41-5.05ZM859.89,131.68c0,1.1-.12,2.16-.34,3.14-.23.97-.55,1.88-.98,2.69-.42.81-.94,1.54-1.55,2.17-.61.63-1.3,1.17-2.07,1.6s-1.62.77-2.55.99c-.92.23-1.94.34-3.02.34-2.12,0-3.99-.45-5.54-1.33-1.55-.88-2.77-2.15-3.62-3.77-.86-1.63-1.3-3.59-1.3-5.83,0-1.13.11-2.2.34-3.18.23-.98.55-1.88.96-2.67.41-.79.92-1.51,1.53-2.14.6-.63,1.3-1.16,2.06-1.58.77-.42,1.64-.75,2.57-.97.94-.23,1.95-.34,3-.34,2.13,0,4,.44,5.57,1.31,1.56.87,2.78,2.12,3.64,3.73.86,1.62,1.3,3.59,1.3,5.84Z"/>
      <path class="cls-3" d="M874.3,140.92c.58-.56,1.4-1.16,2.44-1.77,1.06-.63,2.35-1.3,3.85-1.98l4.97-2.29c2.24-1.04,4.06-2.06,5.41-3.02,1.39-.99,2.4-2.04,3.02-3.13.62-1.1.94-2.33.94-3.66,0-1.71-.55-3.21-1.63-4.43-1.06-1.21-2.58-2.15-4.53-2.78-1.92-.63-4.25-.95-6.95-.95s-5.09.33-7.04.99c-1.98.67-3.56,1.65-4.68,2.94-1.14,1.3-1.78,2.9-1.91,4.76l-.03.39h4.67l.05-.31c.27-1.61,1.13-2.8,2.63-3.64,1.53-.86,3.67-1.29,6.36-1.29s4.75.4,6.19,1.18c1.39.75,2.06,1.78,2.06,3.15,0,.7-.2,1.37-.58,1.98-.4.63-1.06,1.26-1.96,1.89-.93.65-2.17,1.34-3.69,2.04l-6.13,2.87c-1.74.81-3.25,1.62-4.49,2.41-1.25.8-2.29,1.62-3.09,2.44-.82.83-1.43,1.7-1.82,2.59-.39.9-.59,1.86-.59,2.87v1.73h27.44v-3.84h-21.8c.21-.38.51-.76.91-1.13Z"/>
      <path class="cls-3" d="M925.77,131.47c-1.01-1.45-2.53-2.59-4.53-3.39-1.97-.79-4.49-1.19-7.47-1.19-1.94,0-3.71.22-5.26.65-1.56.44-2.91,1.09-4.01,1.93-.51.39-.97.83-1.36,1.31.08-1.22.25-2.32.49-3.3.36-1.48.95-2.74,1.75-3.74.8-.99,1.86-1.74,3.16-2.23,1.32-.5,2.96-.75,4.88-.75s3.58.16,4.76.47c1.15.31,2.03.73,2.6,1.25.56.52.95,1.15,1.13,1.88l.07.28h4.74l-.05-.41c-.16-1.36-.7-2.61-1.59-3.72-.89-1.11-2.29-2-4.14-2.64-1.83-.63-4.31-.95-7.36-.95-1.6,0-3.09.14-4.46.41-1.37.28-2.64.71-3.76,1.27-1.13.57-2.14,1.29-3,2.12-.86.84-1.61,1.83-2.2,2.94-.6,1.11-1.05,2.37-1.35,3.74-.3,1.36-.45,2.88-.45,4.5,0,3.46.53,6.28,1.57,8.39,1.06,2.14,2.7,3.72,4.88,4.69,2.15.96,4.91,1.45,8.2,1.45,2.42,0,4.55-.23,6.34-.69,1.8-.46,3.3-1.14,4.45-2,1.17-.87,2.05-1.92,2.64-3.12.58-1.2.87-2.55.87-4.02,0-1.95-.51-3.68-1.52-5.14ZM922.52,136.6c0,.79-.18,1.56-.52,2.28-.35.72-.9,1.35-1.65,1.9-.76.55-1.75,1-2.95,1.32-1.2.33-2.66.49-4.33.49-2.22,0-4.05-.28-5.45-.85-1.37-.55-2.4-1.29-3.04-2.2-.64-.9-.96-1.9-.96-2.95,0-.79.18-1.55.54-2.26.36-.71.92-1.34,1.67-1.89.76-.55,1.75-1,2.95-1.32,1.2-.33,2.66-.49,4.33-.49,2.25,0,4.08.28,5.47.85,1.36.55,2.37,1.29,3,2.18.63.89.94,1.88.94,2.93Z"/>
    </g>
  </g>
  <g>
    <path class="cls-1" d="M181.07,117.05c-17.22,0-32.22-13.94-32.78-31.23-.52-16-13.02-29.03-29.03-29.03s-29.03,13.02-29.03,29.03,13.38,25.65,29.03,29.03c17.97,3.88,32.77,14.01,32.77,31.23s-13.67,34.54-28.48,39.11c-12.64,3.9-23.88,11.22-23.88,24.45s10.76,24,24,24,23.28-10.78,24-24c.81-14.9,16.18-34.54,33.4-34.54,16.01,0,29.03-13.02,29.03-29.03s-13.02-29.03-29.03-29.03Z"/>
    <path class="cls-1" d="M92.52,121.08c-17.21-5.14-33.46-24.37-32.3-41.96,1-15.12,10.35-23.92,25.47-28.45,16.77-5.03,25.34-11.37,25.34-25.34S99.66,0,85.69,0s-25.34,11.37-25.34,25.34c0,15.78-14.43,24.92-32.06,24.92-15.6,0-28.29,12.7-28.29,28.3s12.69,28.29,28.29,28.29c17.63,0,35.93,24.91,35.93,42.53,0,15.6,12.69,28.29,28.29,28.29s28.29-12.69,28.29-28.29-10.68-23.03-28.29-28.29Z"/>
    <path class="cls-1" d="M207.37,54.99c-14.99,0-27.18,12.19-27.18,27.18s12.19,27.17,27.18,27.17,27.17-12.19,27.17-27.17-12.19-27.18-27.17-27.18Z"/>
  </g>
  <g>
    <path class="cls-2" d="M296.54,167.77v1.89h-7.15v5.87h6.4v1.89h-6.4v6.05h7.15v1.89h-9.45v-17.58h9.45Z"/>
    <path class="cls-2" d="M298.38,171.54h2.47l4.31,11.69,4.28-11.69h2.44l-5.42,13.8h-2.67l-5.42-13.8Z"/>
    <path class="cls-2" d="M315.2,179.3l.03-1.86h9.14c0-.67-.11-1.27-.34-1.79-.23-.52-.54-.96-.94-1.31s-.87-.62-1.4-.81c-.53-.18-1.09-.28-1.68-.28-.79,0-1.52.19-2.18.55-.66.37-1.2.91-1.6,1.61-.4.71-.6,1.58-.6,2.62v.88c0,.99.21,1.84.62,2.54.41.71.96,1.24,1.64,1.61.68.37,1.42.55,2.23.55,1.04,0,1.88-.24,2.53-.72.65-.48,1.1-1.09,1.35-1.83h2.47c-.24.84-.63,1.6-1.2,2.27-.56.67-1.28,1.21-2.14,1.61-.87.4-1.87.6-3.01.6-1.31,0-2.48-.29-3.51-.88-1.03-.59-1.84-1.41-2.43-2.48-.59-1.07-.88-2.33-.88-3.79s.29-2.72.87-3.78c.58-1.06,1.38-1.88,2.41-2.46,1.02-.58,2.21-.87,3.55-.87s2.51.29,3.49.86c.98.57,1.75,1.36,2.3,2.36.55,1,.83,2.13.83,3.39,0,.25,0,.49-.01.71,0,.22-.03.45-.06.68h-11.46Z"/>
    <path class="cls-2" d="M329.76,185.35v-13.8h2.29v13.8h-2.29ZM339.86,185.35v-7.81c0-1.41-.35-2.47-1.06-3.19-.71-.71-1.64-1.07-2.8-1.07-.77,0-1.46.16-2.05.49-.6.33-1.06.82-1.4,1.47-.34.65-.5,1.48-.5,2.47l-.6-2.67c.17-.81.5-1.49.98-2.04.49-.55,1.08-.98,1.79-1.27.71-.29,1.46-.44,2.27-.44,1.07,0,2.04.22,2.88.65.85.44,1.52,1.1,2.02,1.98.5.88.74,1.98.74,3.29v8.14h-2.27Z"/>
    <path class="cls-2" d="M352.28,173.43h-7.68v-1.89h7.68v1.89ZM346.39,181.57v-13.5h2.29v13.5c0,.69.14,1.17.43,1.44.29.27.78.4,1.49.4h1.69v1.94h-2.07c-.81,0-1.49-.12-2.07-.37-.57-.24-1.01-.64-1.31-1.2-.3-.55-.45-1.29-.45-2.22Z"/>
    <path class="cls-2" d="M361.07,185.58c-1.29,0-2.46-.29-3.49-.88-1.03-.59-1.86-1.41-2.47-2.48-.61-1.07-.92-2.33-.92-3.79s.31-2.72.93-3.78c.62-1.06,1.46-1.88,2.52-2.46,1.06-.58,2.23-.87,3.53-.87s2.49.29,3.54.87c1.05.58,1.88,1.4,2.51,2.46.62,1.06.93,2.32.93,3.78s-.31,2.72-.94,3.79c-.63,1.07-1.48,1.89-2.56,2.48-1.07.59-2.27.88-3.58.88ZM361.07,183.56c.81,0,1.57-.18,2.28-.55.71-.37,1.3-.94,1.76-1.7.46-.76.69-1.73.69-2.88s-.23-2.12-.68-2.87c-.45-.76-1.03-1.32-1.74-1.69-.71-.37-1.45-.55-2.24-.55s-1.56.18-2.25.55c-.7.37-1.26.93-1.7,1.69-.44.76-.65,1.71-.65,2.87s.21,2.12.63,2.88c.42.76.98,1.33,1.68,1.7.7.37,1.44.55,2.23.55Z"/>
    <path class="cls-2" d="M389.41,167.77h2.29v17.58h-2.29l-9.22-13.98v13.98h-2.29v-17.58h2.29l9.22,13.95v-13.95Z"/>
    <path class="cls-2" d="M394.75,178.4c0-1.43.29-2.67.87-3.74.58-1.07,1.36-1.89,2.36-2.47.99-.58,2.1-.87,3.33-.87.87,0,1.64.13,2.3.39.66.26,1.23.6,1.71,1.01.48.41.85.86,1.12,1.35v-2.52h2.32v13.8h-2.32v-2.57c-.27.5-.65.97-1.13,1.39-.49.42-1.07.76-1.75,1.02-.68.26-1.44.39-2.28.39-1.23,0-2.33-.3-3.33-.91-.99-.6-1.77-1.44-2.34-2.52-.57-1.07-.86-2.33-.86-3.75ZM406.44,178.42c0-1.06-.21-1.97-.64-2.73-.43-.76-1-1.35-1.71-1.76-.71-.41-1.49-.62-2.33-.62s-1.59.2-2.3.59c-.71.39-1.28.97-1.71,1.73s-.64,1.68-.64,2.77.21,2,.64,2.78c.43.78,1,1.37,1.71,1.78.71.4,1.48.6,2.3.6s1.62-.2,2.33-.6c.71-.4,1.28-.99,1.71-1.76.43-.77.64-1.7.64-2.77Z"/>
    <path class="cls-2" d="M411.78,178.42c0-1.44.29-2.7.86-3.77.57-1.07,1.36-1.89,2.38-2.47,1.02-.58,2.18-.87,3.49-.87,1.71,0,3.11.42,4.21,1.25,1.09.83,1.81,1.97,2.17,3.41h-2.47c-.24-.84-.69-1.5-1.36-1.99-.67-.49-1.52-.73-2.54-.73-.84,0-1.59.2-2.25.59-.66.39-1.18.97-1.56,1.74-.38.76-.57,1.71-.57,2.83s.19,2.1.57,2.87c.38.77.9,1.36,1.56,1.75.66.39,1.41.59,2.25.59,1.02,0,1.87-.23,2.53-.71.66-.47,1.12-1.14,1.37-2.02h2.47c-.35,1.36-1.07,2.48-2.17,3.35-1.09.87-2.49,1.31-4.21,1.31-1.31,0-2.47-.29-3.49-.88-1.02-.59-1.81-1.41-2.38-2.48-.57-1.07-.86-2.33-.86-3.79Z"/>
    <path class="cls-2" d="M429.11,169.3c-.44,0-.81-.15-1.11-.44-.3-.29-.45-.67-.45-1.12s.15-.83.45-1.12c.3-.29.67-.44,1.11-.44s.78.15,1.07.44c.29.29.44.67.44,1.12s-.15.83-.44,1.12-.65.44-1.07.44ZM427.92,185.35v-13.8h2.29v13.8h-2.29Z"/>
    <path class="cls-2" d="M440.14,185.58c-1.29,0-2.46-.29-3.49-.88-1.03-.59-1.86-1.41-2.47-2.48-.61-1.07-.92-2.33-.92-3.79s.31-2.72.93-3.78c.62-1.06,1.46-1.88,2.52-2.46,1.06-.58,2.23-.87,3.53-.87s2.49.29,3.54.87c1.05.58,1.88,1.4,2.51,2.46.62,1.06.93,2.32.93,3.78s-.31,2.72-.94,3.79c-.63,1.07-1.48,1.89-2.56,2.48-1.07.59-2.27.88-3.58.88ZM440.14,183.56c.81,0,1.57-.18,2.28-.55.71-.37,1.3-.94,1.76-1.7.46-.76.69-1.73.69-2.88s-.23-2.12-.68-2.87c-.45-.76-1.03-1.32-1.74-1.69-.71-.37-1.45-.55-2.24-.55s-1.56.18-2.25.55c-.7.37-1.26.93-1.7,1.69-.44.76-.66,1.71-.66,2.87s.21,2.12.63,2.88c.42.76.98,1.33,1.68,1.7.7.37,1.44.55,2.23.55Z"/>
    <path class="cls-2" d="M450.24,185.35v-13.8h2.29v13.8h-2.29ZM460.34,185.35v-7.81c0-1.41-.35-2.47-1.06-3.19-.71-.71-1.64-1.07-2.8-1.07-.77,0-1.46.16-2.05.49-.6.33-1.06.82-1.4,1.47-.34.65-.5,1.48-.5,2.47l-.6-2.67c.17-.81.5-1.49.98-2.04.49-.55,1.08-.98,1.79-1.27.71-.29,1.46-.44,2.27-.44,1.07,0,2.04.22,2.88.65.85.44,1.52,1.1,2.02,1.98.5.88.74,1.98.74,3.29v8.14h-2.27Z"/>
    <path class="cls-2" d="M465.51,178.4c0-1.43.29-2.67.87-3.74.58-1.07,1.36-1.89,2.36-2.47.99-.58,2.1-.87,3.33-.87.87,0,1.64.13,2.3.39.66.26,1.23.6,1.71,1.01.48.41.85.86,1.12,1.35v-2.52h2.32v13.8h-2.32v-2.57c-.27.5-.65.97-1.13,1.39-.49.42-1.07.76-1.75,1.02-.68.26-1.44.39-2.28.39-1.23,0-2.33-.3-3.33-.91-.99-.6-1.77-1.44-2.34-2.52-.57-1.07-.86-2.33-.86-3.75ZM477.19,178.42c0-1.06-.21-1.97-.64-2.73-.43-.76-1-1.35-1.71-1.76-.71-.41-1.49-.62-2.33-.62s-1.59.2-2.3.59c-.71.39-1.28.97-1.71,1.73s-.64,1.68-.64,2.77.21,2,.64,2.78c.43.78,1,1.37,1.71,1.78.71.4,1.48.6,2.3.6s1.62-.2,2.33-.6c.71-.4,1.28-.99,1.71-1.76.43-.77.64-1.7.64-2.77Z"/>
    <path class="cls-2" d="M483.39,185.35v-18.64h2.29v18.64h-2.29Z"/>
    <path class="cls-2" d="M495.46,178.4c0-1.43.29-2.67.87-3.74.58-1.07,1.36-1.89,2.36-2.47.99-.58,2.11-.87,3.35-.87.72,0,1.41.11,2.08.34.66.23,1.26.55,1.78.96.52.41.94.88,1.26,1.4v-7.3h2.32v18.64h-2.32v-2.59c-.27.52-.65.99-1.13,1.41-.49.42-1.07.76-1.74,1.02-.67.26-1.43.39-2.27.39-1.23,0-2.33-.3-3.33-.91-.99-.6-1.78-1.44-2.36-2.52-.58-1.07-.87-2.33-.87-3.75ZM507.14,178.42c0-1.06-.21-1.97-.64-2.73-.43-.76-1-1.35-1.71-1.76-.71-.41-1.49-.62-2.33-.62s-1.59.2-2.3.59c-.71.39-1.28.97-1.71,1.73s-.64,1.68-.64,2.77.21,2,.64,2.78c.43.78,1,1.37,1.71,1.78.71.4,1.48.6,2.3.6s1.62-.2,2.33-.6c.71-.4,1.28-.99,1.71-1.76.43-.77.64-1.7.64-2.77Z"/>
    <path class="cls-2" d="M514.4,179.3l.03-1.86h9.14c0-.67-.11-1.27-.34-1.79-.23-.52-.54-.96-.94-1.31-.4-.35-.87-.62-1.4-.81-.53-.18-1.09-.28-1.68-.28-.79,0-1.52.19-2.18.55-.66.37-1.2.91-1.6,1.61-.4.71-.6,1.58-.6,2.62v.88c0,.99.21,1.84.62,2.54.41.71.96,1.24,1.64,1.61.68.37,1.42.55,2.23.55,1.04,0,1.89-.24,2.53-.72.65-.48,1.1-1.09,1.35-1.83h2.47c-.24.84-.63,1.6-1.2,2.27-.56.67-1.28,1.21-2.14,1.61-.87.4-1.87.6-3.01.6-1.31,0-2.48-.29-3.51-.88-1.03-.59-1.84-1.41-2.43-2.48-.59-1.07-.88-2.33-.88-3.79s.29-2.72.87-3.78c.58-1.06,1.38-1.88,2.41-2.46,1.02-.58,2.21-.87,3.55-.87s2.51.29,3.49.86c.98.57,1.75,1.36,2.3,2.36.55,1,.83,2.13.83,3.39,0,.25,0,.49-.01.71,0,.22-.03.45-.06.68h-11.46Z"/>
    <path class="cls-2" d="M535.68,185.35v-17.56h2.29v17.56h-2.29Z"/>
    <path class="cls-2" d="M541.88,185.35v-13.8h2.29v13.8h-2.29ZM551.98,185.35v-7.81c0-1.41-.35-2.47-1.06-3.19-.71-.71-1.64-1.07-2.8-1.07-.77,0-1.46.16-2.05.49-.6.33-1.06.82-1.4,1.47-.34.65-.5,1.48-.5,2.47l-.6-2.67c.17-.81.5-1.49.98-2.04.49-.55,1.08-.98,1.79-1.27.71-.29,1.46-.44,2.27-.44,1.07,0,2.04.22,2.88.65.85.44,1.52,1.1,2.02,1.98.5.88.74,1.98.74,3.29v8.14h-2.27Z"/>
    <path class="cls-2" d="M564.02,185.58c-1.29,0-2.46-.29-3.49-.88-1.03-.59-1.86-1.41-2.47-2.48-.61-1.07-.92-2.33-.92-3.79s.31-2.72.93-3.78c.62-1.06,1.46-1.88,2.52-2.46,1.06-.58,2.23-.87,3.53-.87s2.49.29,3.54.87c1.05.58,1.88,1.4,2.51,2.46.62,1.06.93,2.32.93,3.78s-.31,2.72-.94,3.79c-.63,1.07-1.48,1.89-2.56,2.48-1.07.59-2.27.88-3.58.88ZM564.02,183.56c.81,0,1.57-.18,2.28-.55.71-.37,1.3-.94,1.76-1.7.46-.76.69-1.73.69-2.88s-.23-2.12-.68-2.87c-.45-.76-1.03-1.32-1.74-1.69-.71-.37-1.45-.55-2.24-.55s-1.56.18-2.25.55c-.7.37-1.26.93-1.7,1.69-.44.76-.66,1.71-.66,2.87s.21,2.12.63,2.88c.42.76.98,1.33,1.68,1.7.7.37,1.44.55,2.23.55Z"/>
    <path class="cls-2" d="M572.48,171.54h2.47l4.31,11.69,4.28-11.69h2.44l-5.42,13.8h-2.67l-5.42-13.8Z"/>
    <path class="cls-2" d="M587.4,178.4c0-1.43.29-2.67.87-3.74.58-1.07,1.36-1.89,2.36-2.47.99-.58,2.1-.87,3.33-.87.87,0,1.64.13,2.3.39.66.26,1.23.6,1.71,1.01.48.41.85.86,1.12,1.35v-2.52h2.32v13.8h-2.32v-2.57c-.27.5-.65.97-1.13,1.39-.49.42-1.07.76-1.75,1.02-.68.26-1.44.39-2.28.39-1.23,0-2.33-.3-3.33-.91-.99-.6-1.77-1.44-2.34-2.52-.57-1.07-.86-2.33-.86-3.75ZM599.08,178.42c0-1.06-.21-1.97-.64-2.73-.43-.76-1-1.35-1.71-1.76-.71-.41-1.49-.62-2.33-.62s-1.59.2-2.3.59c-.71.39-1.28.97-1.71,1.73s-.64,1.68-.64,2.77.21,2,.64,2.78c.43.78,1,1.37,1.71,1.78.71.4,1.48.6,2.3.6s1.62-.2,2.33-.6c.71-.4,1.28-.99,1.71-1.76.43-.77.64-1.7.64-2.77Z"/>
    <path class="cls-2" d="M604.42,178.42c0-1.44.29-2.7.86-3.77.57-1.07,1.36-1.89,2.38-2.47,1.02-.58,2.18-.87,3.49-.87,1.71,0,3.11.42,4.21,1.25,1.09.83,1.81,1.97,2.17,3.41h-2.47c-.24-.84-.69-1.5-1.36-1.99-.67-.49-1.52-.73-2.54-.73-.84,0-1.59.2-2.25.59-.66.39-1.18.97-1.56,1.74-.38.76-.57,1.71-.57,2.83s.19,2.1.57,2.87c.38.77.9,1.36,1.56,1.75.66.39,1.41.59,2.25.59,1.02,0,1.87-.23,2.53-.71.66-.47,1.12-1.14,1.37-2.02h2.47c-.35,1.36-1.07,2.48-2.17,3.35-1.09.87-2.49,1.31-4.21,1.31-1.31,0-2.47-.29-3.49-.88-1.02-.59-1.81-1.41-2.38-2.48-.57-1.07-.86-2.33-.86-3.79ZM611.85,185.17v1.64c.64-.02,1.2.07,1.7.26.5.19.88.47,1.15.84.27.37.4.83.4,1.39,0,.52-.13.98-.39,1.37-.26.39-.62.7-1.08.91-.46.21-1,.31-1.6.31h-2.9v-1.49h2.44c.54,0,.94-.09,1.21-.26.27-.18.4-.46.4-.84s-.13-.68-.4-.84c-.27-.16-.67-.24-1.21-.24h-1.26v-3.05h1.54Z"/>
    <path class="cls-2" d="M619.71,178.4c0-1.43.29-2.67.87-3.74.58-1.07,1.36-1.89,2.36-2.47.99-.58,2.1-.87,3.33-.87.87,0,1.64.13,2.3.39.66.26,1.23.6,1.71,1.01.48.41.85.86,1.12,1.35v-2.52h2.32v13.8h-2.32v-2.57c-.27.5-.65.97-1.13,1.39-.49.42-1.07.76-1.75,1.02-.68.26-1.44.39-2.28.39-1.23,0-2.33-.3-3.33-.91-.99-.6-1.77-1.44-2.34-2.52-.57-1.07-.86-2.33-.86-3.75ZM631.4,178.42c0-1.06-.21-1.97-.64-2.73-.43-.76-1-1.35-1.71-1.76-.71-.41-1.49-.62-2.33-.62s-1.59.2-2.3.59c-.71.39-1.28.97-1.71,1.73s-.64,1.68-.64,2.77.21,2,.64,2.78c.43.78,1,1.37,1.71,1.78.71.4,1.48.6,2.3.6s1.62-.2,2.33-.6c.71-.4,1.28-.99,1.71-1.76.43-.77.64-1.7.64-2.77ZM623.47,170.06c.12-.87.41-1.53.87-1.98.46-.44,1.01-.67,1.65-.67.45,0,.83.1,1.12.29.29.19.57.39.84.58.27.19.57.29.91.29.29,0,.53-.09.73-.26.2-.18.33-.45.38-.82h1.31c-.1.86-.38,1.51-.83,1.95-.45.45-1.02.67-1.69.67-.45,0-.83-.1-1.13-.29-.3-.19-.58-.39-.84-.58-.26-.19-.56-.29-.89-.29-.27,0-.5.09-.71.26-.2.18-.33.46-.38.84h-1.34Z"/>
    <path class="cls-2" d="M643.62,185.58c-1.29,0-2.46-.29-3.49-.88-1.03-.59-1.86-1.41-2.47-2.48-.61-1.07-.92-2.33-.92-3.79s.31-2.72.93-3.78c.62-1.06,1.46-1.88,2.52-2.46,1.06-.58,2.23-.87,3.53-.87s2.49.29,3.54.87c1.05.58,1.88,1.4,2.51,2.46.62,1.06.93,2.32.93,3.78s-.31,2.72-.94,3.79c-.63,1.07-1.48,1.89-2.56,2.48-1.07.59-2.27.88-3.58.88ZM643.62,183.56c.81,0,1.57-.18,2.28-.55.71-.37,1.3-.94,1.76-1.7.46-.76.69-1.73.69-2.88s-.23-2.12-.68-2.87c-.45-.76-1.03-1.32-1.74-1.69-.71-.37-1.45-.55-2.24-.55s-1.56.18-2.25.55c-.7.37-1.26.93-1.7,1.69-.44.76-.66,1.71-.66,2.87s.21,2.12.63,2.88c.42.76.98,1.33,1.68,1.7.7.37,1.44.55,2.23.55Z"/>
    <path class="cls-2" d="M659.36,169.66v-1.86h11.89v1.86h-4.79v15.69h-2.29v-15.69h-4.81Z"/>
    <path class="cls-2" d="M675.13,179.3l.03-1.86h9.14c0-.67-.11-1.27-.34-1.79-.23-.52-.54-.96-.94-1.31-.4-.35-.87-.62-1.4-.81-.53-.18-1.09-.28-1.68-.28-.79,0-1.52.19-2.18.55-.66.37-1.2.91-1.6,1.61-.4.71-.6,1.58-.6,2.62v.88c0,.99.21,1.84.62,2.54.41.71.96,1.24,1.64,1.61.68.37,1.42.55,2.23.55,1.04,0,1.89-.24,2.53-.72.65-.48,1.1-1.09,1.35-1.83h2.47c-.24.84-.63,1.6-1.2,2.27-.56.67-1.28,1.21-2.14,1.61-.87.4-1.87.6-3.01.6-1.31,0-2.48-.29-3.51-.88-1.03-.59-1.84-1.41-2.43-2.48-.59-1.07-.88-2.33-.88-3.79s.29-2.72.87-3.78c.58-1.06,1.38-1.88,2.41-2.46,1.02-.58,2.21-.87,3.55-.87s2.51.29,3.49.86c.98.57,1.75,1.36,2.3,2.36.55,1,.83,2.13.83,3.39,0,.25,0,.49-.01.71,0,.22-.03.45-.06.68h-11.46Z"/>
    <path class="cls-2" d="M688.83,178.42c0-1.44.29-2.7.86-3.77.57-1.07,1.36-1.89,2.38-2.47,1.02-.58,2.18-.87,3.49-.87,1.71,0,3.11.42,4.21,1.25,1.09.83,1.81,1.97,2.17,3.41h-2.47c-.24-.84-.69-1.5-1.36-1.99-.67-.49-1.52-.73-2.54-.73-.84,0-1.59.2-2.25.59-.66.39-1.18.97-1.56,1.74-.38.76-.57,1.71-.57,2.83s.19,2.1.57,2.87c.38.77.9,1.36,1.56,1.75.66.39,1.41.59,2.25.59,1.02,0,1.87-.23,2.53-.71.66-.47,1.12-1.14,1.37-2.02h2.47c-.35,1.36-1.07,2.48-2.17,3.35-1.09.87-2.49,1.31-4.21,1.31-1.31,0-2.47-.29-3.49-.88-1.02-.59-1.81-1.41-2.38-2.48-.57-1.07-.86-2.33-.86-3.79Z"/>
    <path class="cls-2" d="M704.98,185.35v-13.8h2.29v13.8h-2.29ZM715.08,185.35v-7.81c0-1.41-.35-2.47-1.06-3.19-.71-.71-1.64-1.07-2.8-1.07-.77,0-1.46.16-2.05.49-.6.33-1.06.82-1.4,1.47-.34.65-.5,1.48-.5,2.47l-.6-2.67c.17-.81.5-1.49.98-2.04.49-.55,1.08-.98,1.79-1.27.71-.29,1.46-.44,2.27-.44,1.07,0,2.04.22,2.88.65.85.44,1.52,1.1,2.02,1.98.5.88.74,1.98.74,3.29v8.14h-2.27Z"/>
    <path class="cls-2" d="M727.12,185.58c-1.29,0-2.46-.29-3.49-.88-1.03-.59-1.86-1.41-2.47-2.48-.61-1.07-.92-2.33-.92-3.79s.31-2.72.93-3.78c.62-1.06,1.46-1.88,2.52-2.46,1.06-.58,2.23-.87,3.53-.87s2.49.29,3.54.87c1.05.58,1.88,1.4,2.51,2.46.62,1.06.93,2.32.93,3.78s-.31,2.72-.94,3.79c-.63,1.07-1.48,1.89-2.56,2.48-1.07.59-2.27.88-3.58.88ZM727.12,183.56c.81,0,1.57-.18,2.28-.55.71-.37,1.3-.94,1.76-1.7.46-.76.69-1.73.69-2.88s-.23-2.12-.68-2.87c-.45-.76-1.03-1.32-1.74-1.69-.71-.37-1.45-.55-2.24-.55s-1.56.18-2.25.55c-.7.37-1.26.93-1.7,1.69-.44.76-.66,1.71-.66,2.87s.21,2.12.63,2.88c.42.76.98,1.33,1.68,1.7.7.37,1.44.55,2.23.55Z"/>
    <path class="cls-2" d="M737.22,185.35v-18.64h2.29v18.64h-2.29Z"/>
    <path class="cls-2" d="M749.44,185.58c-1.29,0-2.46-.29-3.49-.88-1.03-.59-1.86-1.41-2.47-2.48-.61-1.07-.92-2.33-.92-3.79s.31-2.72.93-3.78c.62-1.06,1.46-1.88,2.52-2.46,1.06-.58,2.23-.87,3.53-.87s2.49.29,3.54.87c1.05.58,1.88,1.4,2.51,2.46.62,1.06.93,2.32.93,3.78s-.31,2.72-.94,3.79c-.63,1.07-1.48,1.89-2.56,2.48-1.07.59-2.27.88-3.58.88ZM749.44,183.56c.81,0,1.57-.18,2.28-.55.71-.37,1.3-.94,1.76-1.7.46-.76.69-1.73.69-2.88s-.23-2.12-.68-2.87c-.45-.76-1.03-1.32-1.74-1.69-.71-.37-1.45-.55-2.24-.55s-1.56.18-2.25.55c-.7.37-1.26.93-1.7,1.69-.44.76-.66,1.71-.66,2.87s.21,2.12.63,2.88c.42.76.98,1.33,1.68,1.7.7.37,1.44.55,2.23.55ZM746.67,168.62l5.34-3.15v1.99l-5.34,2.87v-1.71Z"/>
    <path class="cls-2" d="M765.23,171.32c.84,0,1.6.13,2.27.38.67.25,1.25.58,1.74.99.49.41.86.87,1.13,1.37v-2.52h2.32v14.11c0,.94-.16,1.81-.47,2.61-.31.8-.75,1.49-1.32,2.07-.57.58-1.26,1.03-2.07,1.35-.81.32-1.72.48-2.75.48-1.19,0-2.26-.19-3.21-.58-.95-.39-1.73-.94-2.33-1.66-.6-.72-.98-1.57-1.13-2.54h2.27c.25.82.77,1.49,1.55,2.02.78.52,1.73.78,2.86.78.82,0,1.56-.17,2.2-.52.65-.34,1.15-.85,1.52-1.52.37-.67.55-1.49.55-2.47v-2.9c-.27.5-.65.97-1.13,1.4-.49.43-1.07.77-1.74,1.03-.67.26-1.43.39-2.27.39-1.23,0-2.33-.3-3.33-.91-.99-.6-1.78-1.44-2.36-2.52-.58-1.07-.87-2.33-.87-3.75s.29-2.67.87-3.74c.58-1.07,1.36-1.89,2.36-2.47.99-.58,2.1-.87,3.33-.87ZM770.37,178.42c0-1.06-.21-1.97-.64-2.73-.43-.76-1-1.35-1.71-1.76-.71-.41-1.49-.62-2.33-.62s-1.59.2-2.3.59c-.71.39-1.28.97-1.71,1.73s-.64,1.68-.64,2.77.21,2,.64,2.78c.43.78,1,1.37,1.71,1.78.71.4,1.48.6,2.3.6s1.62-.2,2.33-.6c.71-.4,1.28-.99,1.71-1.76.43-.77.64-1.7.64-2.77Z"/>
    <path class="cls-2" d="M777.75,169.3c-.44,0-.81-.15-1.11-.44-.3-.29-.45-.67-.45-1.12s.15-.83.45-1.12c.3-.29.67-.44,1.11-.44s.78.15,1.07.44c.29.29.44.67.44,1.12s-.15.83-.44,1.12-.65.44-1.07.44ZM776.57,185.35v-13.8h2.29v13.8h-2.29Z"/>
    <path class="cls-2" d="M781.91,178.42c0-1.44.29-2.7.86-3.77.57-1.07,1.36-1.89,2.38-2.47,1.02-.58,2.18-.87,3.49-.87,1.71,0,3.11.42,4.21,1.25,1.09.83,1.81,1.97,2.17,3.41h-2.47c-.24-.84-.69-1.5-1.36-1.99-.67-.49-1.52-.73-2.54-.73-.84,0-1.59.2-2.25.59-.66.39-1.18.97-1.56,1.74-.38.76-.57,1.71-.57,2.83s.19,2.1.57,2.87c.38.77.9,1.36,1.56,1.75.66.39,1.41.59,2.25.59,1.02,0,1.87-.23,2.53-.71.66-.47,1.12-1.14,1.37-2.02h2.47c-.35,1.36-1.07,2.48-2.17,3.35-1.09.87-2.49,1.31-4.21,1.31-1.31,0-2.47-.29-3.49-.88-1.02-.59-1.81-1.41-2.38-2.48-.57-1.07-.86-2.33-.86-3.79Z"/>
    <path class="cls-2" d="M797.2,178.4c0-1.43.29-2.67.87-3.74.58-1.07,1.36-1.89,2.36-2.47.99-.58,2.1-.87,3.33-.87.87,0,1.64.13,2.3.39.66.26,1.23.6,1.71,1.01.48.41.85.86,1.12,1.35v-2.52h2.32v13.8h-2.32v-2.57c-.27.5-.65.97-1.13,1.39-.49.42-1.07.76-1.75,1.02-.68.26-1.44.39-2.28.39-1.23,0-2.33-.3-3.33-.91-.99-.6-1.77-1.44-2.34-2.52-.57-1.07-.86-2.33-.86-3.75ZM808.88,178.42c0-1.06-.21-1.97-.64-2.73-.43-.76-1-1.35-1.71-1.76-.71-.41-1.49-.62-2.33-.62s-1.59.2-2.3.59c-.71.39-1.28.97-1.71,1.73s-.64,1.68-.64,2.77.21,2,.64,2.78c.43.78,1,1.37,1.71,1.78.71.4,1.48.6,2.3.6s1.62-.2,2.33-.6c.71-.4,1.28-.99,1.71-1.76.43-.77.64-1.7.64-2.77Z"/>
    <path class="cls-2" d="M827.05,167.89h2.64l6.32,17.46h-2.42l-5.79-16.17h1.11l-5.79,16.17h-2.42l6.35-17.46ZM823.22,181.44l.58-1.86h8.99l.6,1.86h-10.18Z"/>
    <path class="cls-2" d="M843.67,185.58c-1.07,0-2.03-.18-2.86-.54-.83-.36-1.49-.86-1.98-1.51-.49-.65-.76-1.39-.81-2.23h2.37c.05.65.37,1.21.94,1.66.58.45,1.35.68,2.3.68.6,0,1.12-.09,1.54-.28.42-.18.74-.43.96-.73.22-.3.33-.65.33-1.03,0-.44-.15-.79-.44-1.06-.29-.27-.68-.49-1.17-.67-.49-.18-1.02-.34-1.6-.48-.58-.14-1.16-.31-1.74-.49-.58-.18-1.11-.43-1.6-.73-.49-.3-.88-.69-1.17-1.17-.29-.48-.44-1.09-.44-1.83s.21-1.35.63-1.93c.42-.58,1.01-1.05,1.76-1.4.76-.35,1.65-.53,2.67-.53s1.91.18,2.67.53c.76.35,1.36.85,1.8,1.49.44.64.69,1.41.74,2.32h-2.29c-.05-.69-.33-1.26-.84-1.71-.51-.45-1.23-.68-2.15-.68-.55,0-1.03.08-1.44.25-.4.17-.71.39-.93.68-.22.29-.33.61-.33.98,0,.45.15.83.44,1.12.29.29.68.53,1.15.72.47.19.99.35,1.56.5.57.15,1.15.32,1.73.5.58.19,1.11.42,1.59.71.48.29.87.65,1.18,1.11.31.45.47,1.04.47,1.76s-.21,1.41-.62,2.02c-.41.6-1,1.08-1.75,1.44-.76.35-1.65.53-2.67.53Z"/>
    <path class="cls-2" d="M856.82,185.58c-1.07,0-2.03-.18-2.86-.54-.83-.36-1.49-.86-1.98-1.51-.49-.65-.76-1.39-.81-2.23h2.37c.05.65.37,1.21.94,1.66.58.45,1.35.68,2.3.68.6,0,1.12-.09,1.54-.28.42-.18.74-.43.96-.73.22-.3.33-.65.33-1.03,0-.44-.15-.79-.44-1.06-.29-.27-.68-.49-1.17-.67-.49-.18-1.02-.34-1.6-.48-.58-.14-1.16-.31-1.74-.49-.58-.18-1.11-.43-1.6-.73-.49-.3-.88-.69-1.17-1.17-.29-.48-.44-1.09-.44-1.83s.21-1.35.63-1.93c.42-.58,1.01-1.05,1.76-1.4.76-.35,1.65-.53,2.67-.53s1.91.18,2.67.53c.76.35,1.36.85,1.8,1.49.44.64.69,1.41.74,2.32h-2.29c-.05-.69-.33-1.26-.84-1.71-.51-.45-1.23-.68-2.15-.68-.55,0-1.03.08-1.44.25-.4.17-.71.39-.93.68-.22.29-.33.61-.33.98,0,.45.15.83.44,1.12.29.29.68.53,1.15.72.47.19.99.35,1.56.5.57.15,1.15.32,1.73.5.58.19,1.11.42,1.59.71.48.29.87.65,1.18,1.11.31.45.47,1.04.47,1.76s-.21,1.41-.62,2.02c-.41.6-1,1.08-1.75,1.44-.76.35-1.65.53-2.67.53Z"/>
    <path class="cls-2" d="M866.27,169.3c-.44,0-.81-.15-1.11-.44-.3-.29-.45-.67-.45-1.12s.15-.83.45-1.12c.3-.29.67-.44,1.11-.44s.78.15,1.07.44c.29.29.44.67.44,1.12s-.15.83-.44,1.12-.65.44-1.07.44ZM865.08,185.35v-13.8h2.29v13.8h-2.29Z"/>
    <path class="cls-2" d="M876.16,185.58c-1.07,0-2.03-.18-2.86-.54-.83-.36-1.49-.86-1.98-1.51-.49-.65-.76-1.39-.81-2.23h2.37c.05.65.37,1.21.94,1.66.58.45,1.35.68,2.3.68.6,0,1.12-.09,1.54-.28.42-.18.74-.43.96-.73.22-.3.33-.65.33-1.03,0-.44-.15-.79-.44-1.06-.29-.27-.68-.49-1.17-.67-.49-.18-1.02-.34-1.6-.48-.58-.14-1.16-.31-1.74-.49-.58-.18-1.11-.43-1.6-.73-.49-.3-.88-.69-1.17-1.17-.29-.48-.44-1.09-.44-1.83s.21-1.35.63-1.93c.42-.58,1.01-1.05,1.76-1.4.76-.35,1.65-.53,2.67-.53s1.91.18,2.67.53c.76.35,1.36.85,1.8,1.49.44.64.69,1.41.74,2.32h-2.29c-.05-.69-.33-1.26-.84-1.71-.51-.45-1.23-.68-2.15-.68-.55,0-1.03.08-1.44.25-.4.17-.71.39-.93.68-.22.29-.33.61-.33.98,0,.45.15.83.44,1.12.29.29.68.53,1.15.72.47.19.99.35,1.56.5.57.15,1.15.32,1.73.5.58.19,1.11.42,1.59.71.48.29.87.65,1.18,1.11.31.45.47,1.04.47,1.76s-.21,1.41-.62,2.02c-.41.6-1,1.08-1.75,1.44-.76.35-1.65.53-2.67.53Z"/>
    <path class="cls-2" d="M890.82,173.43h-7.68v-1.89h7.68v1.89ZM884.93,181.57v-13.5h2.29v13.5c0,.69.14,1.17.43,1.44.29.27.78.4,1.49.4h1.69v1.94h-2.07c-.81,0-1.49-.12-2.07-.37-.57-.24-1.01-.64-1.31-1.2-.3-.55-.45-1.29-.45-2.22Z"/>
    <path class="cls-2" d="M894.78,169.3c-.44,0-.81-.15-1.11-.44-.3-.29-.45-.67-.45-1.12s.15-.83.45-1.12c.3-.29.67-.44,1.11-.44s.78.15,1.07.44c.29.29.44.67.44,1.12s-.15.83-.44,1.12-.65.44-1.07.44ZM893.6,185.35v-13.8h2.29v13.8h-2.29Z"/>
    <path class="cls-2" d="M898.15,171.54h2.47l4.31,11.69,4.28-11.69h2.44l-5.42,13.8h-2.67l-5.42-13.8Z"/>
    <path class="cls-2" d="M913.07,178.4c0-1.43.29-2.67.87-3.74.58-1.07,1.36-1.89,2.36-2.47.99-.58,2.1-.87,3.33-.87.87,0,1.64.13,2.3.39.66.26,1.23.6,1.71,1.01.48.41.85.86,1.12,1.35v-2.52h2.32v13.8h-2.32v-2.57c-.27.5-.65.97-1.13,1.39-.49.42-1.07.76-1.75,1.02-.68.26-1.44.39-2.28.39-1.23,0-2.33-.3-3.33-.91-.99-.6-1.77-1.44-2.34-2.52-.57-1.07-.86-2.33-.86-3.75ZM924.75,178.42c0-1.06-.21-1.97-.64-2.73-.43-.76-1-1.35-1.71-1.76-.71-.41-1.49-.62-2.33-.62s-1.59.2-2.3.59c-.71.39-1.28.97-1.71,1.73s-.64,1.68-.64,2.77.21,2,.64,2.78c.43.78,1,1.37,1.71,1.78.71.4,1.48.6,2.3.6s1.62-.2,2.33-.6c.71-.4,1.28-.99,1.71-1.76.43-.77.64-1.7.64-2.77Z"/>
  </g>
</svg>