<?xml version="1.0" encoding="UTF-8"?>
<svg id="Camada_1" data-name="Camada 1" xmlns="http://www.w3.org/2000/svg" viewBox="0 0 927.29 233.63">
  <defs>
    <style>
      .cls-1 {
        fill: #f9820b;
      }

      .cls-2 {
        fill: #33a2e5;
      }

      .cls-3 {
        fill: #eae9e8;
      }
    </style>
  </defs>
  <g>
    <g>
      <path class="cls-2" d="M315.69,147.05c-5.07,0-9.39-.43-12.95-1.3-3.56-.87-6.45-2.06-8.67-3.56-2.21-1.51-3.88-3.19-5.01-5.06-1.12-1.86-1.78-3.82-1.97-5.87h12.23c.32,1.22,1.03,2.39,2.12,3.51,1.09,1.12,2.79,2.06,5.1,2.79,2.31.74,5.36,1.11,9.15,1.11,3.59,0,6.51-.3,8.76-.92,2.25-.61,3.88-1.43,4.91-2.46s1.54-2.21,1.54-3.56-.56-2.46-1.68-3.52c-1.12-1.06-3.13-1.78-6.02-2.17l-16.56-2.22c-6.23-.77-10.83-2.28-13.82-4.52-2.99-2.25-4.48-5.33-4.48-9.25,0-2.18.54-4.2,1.64-6.07,1.09-1.86,2.73-3.47,4.91-4.81,2.18-1.35,4.93-2.41,8.23-3.18,3.31-.77,7.17-1.16,11.6-1.16,5.84,0,10.66.61,14.44,1.83,3.79,1.22,6.66,2.94,8.62,5.15,1.96,2.21,3.16,4.8,3.61,7.75h-12.23c-.32-1.22-1-2.29-2.02-3.23-1.03-.93-2.57-1.68-4.62-2.26-2.05-.58-4.75-.87-8.09-.87-3.08,0-5.67.27-7.75.82-2.09.55-3.63,1.28-4.62,2.21-1,.93-1.49,2.04-1.49,3.32,0,1.48.64,2.63,1.93,3.47,1.28.84,3.14,1.41,5.59,1.73l17.04,2.31c3.6.45,6.77,1.22,9.53,2.31,2.76,1.09,4.91,2.57,6.45,4.43,1.54,1.86,2.31,4.33,2.31,7.42,0,2.63-.64,4.93-1.93,6.89-1.29,1.96-3.13,3.6-5.54,4.91-2.41,1.32-5.31,2.31-8.72,2.99-3.4.67-7.26,1.01-11.56,1.01Z"/>
      <path class="cls-2" d="M349.24,100.14h0c0-2.26,1.84-4.1,4.1-4.1h1.19c2.26,0,4.1,1.84,4.1,4.1h0c0,2.26-1.84,4.1-4.1,4.1h-1.19c-2.26,0-4.1-1.84-4.1-4.1ZM349.52,146.07v-36.02h8.76v36.02h-8.76Z"/>
      <path class="cls-2" d="M385.33,147.05c-3.69,0-6.83-.31-9.43-.94-2.59-.63-4.7-1.5-6.31-2.59-1.61-1.1-2.83-2.32-3.64-3.68-.82-1.35-1.3-2.78-1.44-4.27h8.9c.23.89.75,1.74,1.54,2.56.79.82,2.03,1.5,3.71,2.03,1.68.54,3.9.81,6.66.81,2.62,0,4.74-.22,6.38-.67,1.63-.44,2.83-1.04,3.57-1.79.75-.75,1.12-1.61,1.12-2.59s-.41-1.79-1.23-2.56c-.82-.77-2.28-1.3-4.38-1.58l-12.05-1.61c-4.53-.56-7.88-1.66-10.06-3.29-2.17-1.64-3.26-3.88-3.26-6.73,0-1.59.4-3.06,1.19-4.41.79-1.35,1.99-2.52,3.57-3.5,1.59-.98,3.59-1.75,5.99-2.31,2.41-.56,5.22-.84,8.44-.84,4.25,0,7.75.44,10.51,1.33,2.76.89,4.85,2.14,6.27,3.75,1.42,1.61,2.3,3.49,2.63,5.64h-8.9c-.23-.89-.72-1.67-1.47-2.35-.75-.68-1.87-1.23-3.36-1.65-1.5-.42-3.46-.63-5.89-.63-2.24,0-4.12.2-5.64.6-1.52.4-2.64.93-3.36,1.61-.72.68-1.09,1.48-1.09,2.42,0,1.08.47,1.92,1.4,2.52.93.61,2.29,1.03,4.06,1.26l12.4,1.68c2.62.33,4.93.89,6.94,1.68,2.01.8,3.57,1.87,4.7,3.22,1.12,1.36,1.68,3.15,1.68,5.4,0,1.92-.47,3.59-1.4,5.01-.94,1.43-2.28,2.62-4.03,3.57-1.75.96-3.87,1.68-6.34,2.17-2.48.49-5.28.73-8.41.73Z"/>
      <path class="cls-3" d="M433.26,147.05c-4.77,0-8.9-.79-12.4-2.38-3.5-1.59-6.2-3.81-8.09-6.66-1.89-2.85-2.84-6.19-2.84-10.02,0-2.24.35-4.35,1.05-6.31.7-1.96,1.7-3.71,3.01-5.26,1.31-1.54,2.92-2.86,4.83-3.96,1.92-1.1,4.08-1.94,6.48-2.52,2.41-.58,5.06-.88,7.95-.88,4.11,0,7.71.54,10.79,1.61,3.08,1.08,5.57,2.57,7.46,4.49,1.89,1.92,3.07,4.16,3.54,6.73h-9.11c-.56-1.17-1.39-2.23-2.49-3.19-1.1-.96-2.5-1.73-4.2-2.31-1.71-.58-3.7-.88-5.99-.88-1.92,0-3.63.21-5.15.63-1.52.42-2.85.99-3.99,1.72-1.14.72-2.1,1.61-2.87,2.66-.77,1.05-1.34,2.21-1.72,3.47-.37,1.26-.56,2.59-.56,3.99,0,2.43.54,4.58,1.61,6.45,1.07,1.87,2.66,3.36,4.77,4.49,2.1,1.12,4.74,1.68,7.92,1.68,3.41,0,6.12-.62,8.13-1.86,2.01-1.24,3.53-2.74,4.56-4.52h9.11c-.56,2.52-1.78,4.76-3.64,6.69-1.87,1.94-4.33,3.45-7.39,4.52-3.06,1.07-6.65,1.61-10.76,1.61Z"/>
      <path class="cls-3" d="M482.88,147.05c-4.77,0-8.9-.78-12.4-2.35-3.5-1.56-6.2-3.78-8.09-6.66-1.89-2.87-2.84-6.23-2.84-10.06,0-2.24.35-4.35,1.05-6.31.7-1.96,1.72-3.71,3.05-5.26,1.33-1.54,2.94-2.87,4.83-3.99s4.05-1.96,6.48-2.52c2.43-.56,5.07-.84,7.92-.84,4.81,0,8.97.78,12.47,2.35,3.5,1.57,6.19,3.76,8.06,6.59,1.87,2.83,2.8,6.16,2.8,9.99,0,2.34-.34,4.48-1.02,6.45-.68,1.96-1.68,3.72-3.01,5.26-1.33,1.54-2.94,2.86-4.83,3.96-1.89,1.1-4.05,1.94-6.48,2.52-2.43.58-5.09.88-7.99.88ZM482.88,140.61c1.92,0,3.63-.21,5.15-.63,1.52-.42,2.85-1.02,3.99-1.79,1.14-.77,2.1-1.67,2.87-2.7.77-1.03,1.34-2.18,1.72-3.47.37-1.28.56-2.63.56-4.03,0-2.34-.53-4.45-1.58-6.34-1.05-1.89-2.63-3.39-4.73-4.48-2.1-1.1-4.77-1.65-7.99-1.65-1.87,0-3.56.21-5.08.63-1.52.42-2.85,1-3.99,1.75-1.15.75-2.1,1.65-2.87,2.7-.77,1.05-1.34,2.2-1.72,3.43-.37,1.24-.56,2.56-.56,3.96,0,2.34.53,4.46,1.58,6.38,1.05,1.92,2.64,3.43,4.77,4.56,2.13,1.12,4.75,1.68,7.88,1.68Z"/>
      <path class="cls-3" d="M512.31,146.07v-36.02h8.76v7.62s1.48-2.62,3.19-4.12c1.71-1.49,3.73-2.62,6.06-3.36,2.34-.75,4.88-1.12,7.64-1.12s5.22.37,7.39,1.12c2.17.75,4.01,1.83,5.5,3.26,1.49,1.43,2.64,3.2,3.43,5.33.79,2.13,1.19,4.57,1.19,7.32v19.97h-8.76v-18.22c0-2.52-.43-4.7-1.3-6.52-.87-1.82-2.18-3.22-3.96-4.2-1.78-.98-4.04-1.47-6.8-1.47s-5.15.55-7.18,1.65c-2.03,1.1-3.61,2.59-4.73,4.48-1.12,1.89-1.68,4.01-1.68,6.34v17.94h-8.76Z"/>
      <path class="cls-3" d="M634.31,147.05c-4.77,0-8.9-.79-12.4-2.38-3.5-1.59-6.2-3.81-8.09-6.66-1.89-2.85-2.84-6.19-2.84-10.02,0-2.24.35-4.35,1.05-6.31.7-1.96,1.7-3.71,3.01-5.26,1.31-1.54,2.92-2.86,4.83-3.96,1.92-1.1,4.08-1.94,6.48-2.52,2.41-.58,5.06-.88,7.95-.88,4.11,0,7.71.54,10.79,1.61,3.08,1.08,5.57,2.57,7.46,4.49,1.89,1.92,3.07,4.16,3.54,6.73h-9.11c-.56-1.17-1.39-2.23-2.49-3.19-1.1-.96-2.5-1.73-4.2-2.31-1.71-.58-3.7-.88-5.99-.88-1.92,0-3.63.21-5.15.63-1.52.42-2.85.99-3.99,1.72-1.14.72-2.1,1.61-2.87,2.66-.77,1.05-1.34,2.21-1.72,3.47-.37,1.26-.56,2.59-.56,3.99,0,2.43.54,4.58,1.61,6.45,1.07,1.87,2.66,3.36,4.77,4.49,2.1,1.12,4.74,1.68,7.92,1.68,3.41,0,6.12-.62,8.13-1.86,2.01-1.24,3.53-2.74,4.55-4.52h9.11c-.56,2.52-1.77,4.76-3.64,6.69-1.87,1.94-4.33,3.45-7.39,4.52s-6.65,1.61-10.76,1.61Z"/>
      <path class="cls-3" d="M606,124.68s.19-.05.19-.05c-1.15-7.03-5.9-12.32-12.71-14.33-2.78-.82-5.83-1.23-9.14-1.23-2.9,0-5.55.29-7.95.88-2.41.58-4.54,1.43-6.41,2.52-1.87,1.1-3.46,2.42-4.77,3.96-1.31,1.54-2.31,3.29-3.01,5.26-.7,1.96-1.05,4.06-1.05,6.31,0,3.83.95,7.17,2.84,10.02,1.89,2.85,4.57,5.07,8.02,6.66,3.46,1.59,7.52,2.38,12.19,2.38,4.39,0,8.07-.5,11.04-1.51,2.97-1,5.3-2.34,7.01-3.99,1.7-1.66,2.91-3.54,3.61-5.64h-9.11c-1.03,1.59-2.55,2.8-4.55,3.64-2.01.84-4.6,1.26-7.78,1.26s-5.85-.55-8.02-1.65c-2.17-1.1-3.8-2.62-4.87-4.56-.11-.2-.19-.41-.29-.62l34.78-9.32ZM570.5,123.82c.4-1.28.98-2.45,1.75-3.5.77-1.05,1.74-1.95,2.91-2.7,1.17-.75,2.51-1.32,4.03-1.72,1.52-.4,3.21-.6,5.08-.6s3.56.2,5.08.6c1.52.4,2.86.99,4.03,1.79,1.17.8,2.1,1.78,2.8,2.94.19.31.36.64.51.99,0,0,0,0,0,0l-26.74,7.17c-.01-.27-.04-.52-.04-.79,0-1.49.2-2.88.6-4.17Z"/>
    </g>
    <path class="cls-1" d="M669.19,140.19h0c0-3.25,2.64-5.89,5.89-5.89h.07c3.25,0,5.89,2.64,5.89,5.89h0c0,3.25-2.64,5.89-5.89,5.89h-.07c-3.25,0-5.89-2.64-5.89-5.89Z"/>
    <path class="cls-1" d="M694.82,146.07v-38.47h-20.6v-11.56h56.62v11.56h-20.53v38.47h-15.49Z"/>
    <path class="cls-1" d="M772.88,146.07h16.89l-24.11-50.04h-18.36l-24.18,50.04h15.63l4.41-9.67h25.33l4.39,9.67ZM748.27,125.19l7.58-16.64,7.55,16.64h-15.13Z"/>
    <g>
      <path class="cls-3" d="M810.16,140.92c.58-.56,1.4-1.16,2.44-1.77,1.06-.63,2.35-1.3,3.85-1.98l4.97-2.29c2.24-1.04,4.06-2.06,5.41-3.02,1.39-.99,2.4-2.04,3.02-3.13.62-1.1.94-2.33.94-3.66,0-1.71-.55-3.21-1.63-4.43-1.06-1.21-2.58-2.15-4.53-2.78-1.92-.63-4.25-.95-6.95-.95s-5.09.33-7.04.99c-1.98.67-3.56,1.65-4.68,2.94-1.14,1.3-1.78,2.9-1.91,4.76l-.03.39h4.67l.05-.31c.27-1.61,1.13-2.8,2.63-3.64,1.53-.86,3.67-1.29,6.36-1.29s4.75.4,6.19,1.18c1.39.75,2.06,1.78,2.06,3.15,0,.7-.2,1.37-.58,1.98-.4.63-1.06,1.26-1.96,1.89-.93.65-2.17,1.34-3.69,2.04l-6.13,2.87c-1.74.81-3.25,1.62-4.49,2.41-1.25.8-2.29,1.62-3.09,2.44-.82.83-1.43,1.7-1.82,2.59-.39.9-.59,1.86-.59,2.87v1.73h27.44v-3.84h-21.8c.21-.38.51-.76.91-1.13Z"/>
      <path class="cls-3" d="M857.3,118.7c-2.28-1.16-4.94-1.75-7.91-1.75-1.47,0-2.88.15-4.19.44-1.32.29-2.56.73-3.68,1.31-1.12.58-2.15,1.3-3.07,2.13-.91.84-1.7,1.82-2.34,2.92-.64,1.1-1.13,2.33-1.45,3.65-.33,1.32-.5,2.76-.5,4.28,0,3.06.66,5.72,1.95,7.91,1.3,2.2,3.12,3.91,5.41,5.09,2.28,1.17,4.93,1.77,7.87,1.77,1.46,0,2.88-.15,4.22-.45,1.33-.3,2.57-.75,3.7-1.33,1.13-.58,2.15-1.3,3.05-2.13.9-.83,1.69-1.81,2.34-2.92.65-1.1,1.15-2.33,1.48-3.65.33-1.32.5-2.76.5-4.28,0-3.08-.66-5.75-1.95-7.93-1.3-2.18-3.12-3.88-5.41-5.05ZM859.89,131.68c0,1.1-.12,2.16-.34,3.14-.23.97-.55,1.88-.98,2.69-.42.81-.94,1.54-1.55,2.17-.61.63-1.3,1.17-2.07,1.6s-1.62.77-2.55.99c-.92.23-1.94.34-3.02.34-2.12,0-3.99-.45-5.54-1.33-1.55-.88-2.77-2.15-3.62-3.77-.86-1.63-1.3-3.59-1.3-5.83,0-1.13.11-2.2.34-3.18.23-.98.55-1.88.96-2.67.41-.79.92-1.51,1.53-2.14.6-.63,1.3-1.16,2.06-1.58.77-.42,1.64-.75,2.57-.97.94-.23,1.95-.34,3-.34,2.13,0,4,.44,5.57,1.31,1.56.87,2.78,2.12,3.64,3.73.86,1.62,1.3,3.59,1.3,5.84Z"/>
      <path class="cls-3" d="M874.3,140.92c.58-.56,1.4-1.16,2.44-1.77,1.06-.63,2.35-1.3,3.85-1.98l4.97-2.29c2.24-1.04,4.06-2.06,5.41-3.02,1.39-.99,2.4-2.04,3.02-3.13.62-1.1.94-2.33.94-3.66,0-1.71-.55-3.21-1.63-4.43-1.06-1.21-2.58-2.15-4.53-2.78-1.92-.63-4.25-.95-6.95-.95s-5.09.33-7.04.99c-1.98.67-3.56,1.65-4.68,2.94-1.14,1.3-1.78,2.9-1.91,4.76l-.03.39h4.67l.05-.31c.27-1.61,1.13-2.8,2.63-3.64,1.53-.86,3.67-1.29,6.36-1.29s4.75.4,6.19,1.18c1.39.75,2.06,1.78,2.06,3.15,0,.7-.2,1.37-.58,1.98-.4.63-1.06,1.26-1.96,1.89-.93.65-2.17,1.34-3.69,2.04l-6.13,2.87c-1.74.81-3.25,1.62-4.49,2.41-1.25.8-2.29,1.62-3.09,2.44-.82.83-1.43,1.7-1.82,2.59-.39.9-.59,1.86-.59,2.87v1.73h27.44v-3.84h-21.8c.21-.38.51-.76.91-1.13Z"/>
      <path class="cls-3" d="M925.77,131.47c-1.01-1.45-2.53-2.59-4.53-3.39-1.97-.79-4.49-1.19-7.47-1.19-1.94,0-3.71.22-5.26.65-1.56.44-2.91,1.09-4.01,1.93-.51.39-.97.83-1.36,1.31.08-1.22.25-2.32.49-3.3.36-1.48.95-2.74,1.75-3.74.8-.99,1.86-1.74,3.16-2.23,1.32-.5,2.96-.75,4.88-.75s3.58.16,4.76.47c1.15.31,2.03.73,2.6,1.25.56.52.95,1.15,1.13,1.88l.07.28h4.74l-.05-.41c-.16-1.36-.7-2.61-1.59-3.72-.89-1.11-2.29-2-4.14-2.64-1.83-.63-4.31-.95-7.36-.95-1.6,0-3.09.14-4.46.41-1.37.28-2.64.71-3.76,1.27-1.13.57-2.14,1.29-3,2.12-.86.84-1.61,1.83-2.2,2.94-.6,1.11-1.05,2.37-1.35,3.74-.3,1.36-.45,2.88-.45,4.5,0,3.46.53,6.28,1.57,8.39,1.06,2.14,2.7,3.72,4.88,4.69,2.15.96,4.91,1.45,8.2,1.45,2.42,0,4.55-.23,6.34-.69,1.8-.46,3.3-1.14,4.45-2,1.17-.87,2.05-1.92,2.64-3.12.58-1.2.87-2.55.87-4.02,0-1.95-.51-3.68-1.52-5.14ZM922.52,136.6c0,.79-.18,1.56-.52,2.28-.35.72-.9,1.35-1.65,1.9-.76.55-1.75,1-2.95,1.32-1.2.33-2.66.49-4.33.49-2.22,0-4.05-.28-5.45-.85-1.37-.55-2.4-1.29-3.04-2.2-.64-.9-.96-1.9-.96-2.95,0-.79.18-1.55.54-2.26.36-.71.92-1.34,1.67-1.89.76-.55,1.75-1,2.95-1.32,1.2-.33,2.66-.49,4.33-.49,2.25,0,4.08.28,5.47.85,1.36.55,2.37,1.29,3,2.18.63.89.94,1.88.94,2.93Z"/>
    </g>
  </g>
  <g>
    <path class="cls-1" d="M181.07,117.05c-17.22,0-32.22-13.94-32.78-31.23-.52-16-13.02-29.03-29.03-29.03s-29.03,13.02-29.03,29.03,13.38,25.65,29.03,29.03c17.97,3.88,32.77,14.01,32.77,31.23s-13.67,34.54-28.48,39.11c-12.64,3.9-23.88,11.22-23.88,24.45s10.76,24,24,24,23.28-10.78,24-24c.81-14.9,16.18-34.54,33.4-34.54,16.01,0,29.03-13.02,29.03-29.03s-13.02-29.03-29.03-29.03Z"/>
    <path class="cls-1" d="M92.52,121.08c-17.21-5.14-33.46-24.37-32.3-41.96,1-15.12,10.35-23.92,25.47-28.45,16.77-5.03,25.34-11.37,25.34-25.34S99.66,0,85.69,0s-25.34,11.37-25.34,25.34c0,15.78-14.43,24.92-32.06,24.92-15.6,0-28.29,12.7-28.29,28.3s12.69,28.29,28.29,28.29c17.63,0,35.93,24.91,35.93,42.53,0,15.6,12.69,28.29,28.29,28.29s28.29-12.69,28.29-28.29-10.68-23.03-28.29-28.29Z"/>
    <path class="cls-1" d="M207.37,54.99c-14.99,0-27.18,12.19-27.18,27.18s12.19,27.17,27.18,27.17,27.17-12.19,27.17-27.17-12.19-27.18-27.17-27.18Z"/>
  </g>
</svg>