<?xml version="1.0" encoding="UTF-8"?>
<svg id="Camada_1" data-name="Camada 1" xmlns="http://www.w3.org/2000/svg" viewBox="0 0 558.64 580.29">
  <defs>
    <style>
      .cls-1 {
        fill: #2d94e0;
      }

      .cls-2 {
        fill: #f9820b;
      }

      .cls-3 {
        fill: #eae9e8;
      }
    </style>
  </defs>
  <g>
    <path class="cls-2" d="M375.49,176.44c-25.96,0-48.57-21.01-49.41-47.07-.78-24.12-19.63-43.76-43.75-43.76s-43.75,19.63-43.75,43.76,20.17,38.66,43.75,43.75c27.08,5.85,49.4,21.12,49.4,47.07s-20.61,52.06-42.93,58.96c-19.06,5.88-36,16.91-36,36.86s16.23,36.17,36.17,36.17,35.09-16.26,36.17-36.17c1.22-22.45,24.39-52.06,50.35-52.06,24.13,0,43.75-19.63,43.75-43.75s-19.63-43.75-43.75-43.75Z"/>
    <path class="cls-2" d="M242.01,182.52c-25.94-7.75-50.44-36.74-48.68-63.25,1.51-22.78,15.61-36.05,38.4-42.89,25.28-7.58,38.2-17.13,38.2-38.19S252.78,0,231.72,0s-38.19,17.13-38.19,38.2c0,23.79-21.76,37.56-48.33,37.56-23.52,0-42.65,19.14-42.65,42.66s19.13,42.65,42.65,42.65c26.57,0,54.16,37.54,54.16,64.11,0,23.52,19.13,42.65,42.65,42.65s42.65-19.13,42.65-42.65-16.1-34.71-42.65-42.65Z"/>
    <path class="cls-2" d="M415.14,82.89c-22.59,0-40.97,18.38-40.97,40.97s18.38,40.96,40.97,40.96,40.96-18.37,40.96-40.96-18.37-40.97-40.96-40.97Z"/>
  </g>
  <g>
    <g>
      <path class="cls-1" d="M41.99,450.18c-7.45,0-13.79-.64-19.02-1.91-5.23-1.27-9.47-3.02-12.73-5.23-3.25-2.21-5.7-4.69-7.35-7.42-1.65-2.73-2.62-5.61-2.9-8.62h17.96c.47,1.79,1.51,3.51,3.11,5.16,1.6,1.65,4.1,3.02,7.49,4.1,3.39,1.09,7.87,1.63,13.43,1.63,5.28,0,9.57-.45,12.87-1.34,3.3-.9,5.7-2.1,7.21-3.61,1.51-1.51,2.26-3.25,2.26-5.23s-.83-3.61-2.47-5.16c-1.65-1.56-4.6-2.61-8.84-3.18l-24.32-3.25c-9.14-1.13-15.91-3.34-20.29-6.64s-6.57-7.83-6.57-13.58c0-3.2.8-6.17,2.4-8.91,1.6-2.73,4.01-5.09,7.21-7.07,3.2-1.98,7.23-3.53,12.09-4.67,4.86-1.13,10.53-1.7,17.04-1.7,8.58,0,15.65.9,21.21,2.69,5.56,1.79,9.78,4.31,12.65,7.57,2.87,3.25,4.64,7.05,5.3,11.38h-17.96c-.47-1.79-1.46-3.37-2.97-4.74-1.51-1.37-3.77-2.47-6.79-3.32-3.02-.85-6.98-1.27-11.88-1.27-4.52,0-8.32.4-11.38,1.2-3.06.8-5.33,1.89-6.79,3.25-1.46,1.37-2.19,2.99-2.19,4.88,0,2.17.94,3.87,2.83,5.09,1.88,1.23,4.62,2.07,8.2,2.55l25.03,3.39c5.28.66,9.94,1.79,14,3.39,4.05,1.6,7.21,3.77,9.47,6.5,2.26,2.74,3.39,6.36,3.39,10.89,0,3.87-.94,7.23-2.83,10.11-1.89,2.88-4.6,5.28-8.13,7.21-3.53,1.94-7.8,3.4-12.8,4.38-5,.99-10.65,1.48-16.97,1.48Z"/>
      <path class="cls-1" d="M91.25,381.29h0c0-3.32,2.69-6.02,6.02-6.02h1.75c3.32,0,6.02,2.69,6.02,6.02h0c0,3.32-2.69,6.02-6.02,6.02h-1.75c-3.32,0-6.02-2.69-6.02-6.02ZM91.67,448.74v-52.89h12.86v52.89h-12.86Z"/>
      <path class="cls-1" d="M144.24,450.18c-5.42,0-10.03-.46-13.84-1.39-3.81-.93-6.89-2.2-9.26-3.81-2.37-1.61-4.15-3.41-5.35-5.4-1.2-1.99-1.9-4.08-2.11-6.28h13.07c.34,1.3,1.1,2.56,2.26,3.75,1.17,1.2,2.98,2.2,5.45,2.98,2.47.79,5.73,1.18,9.77,1.18,3.84,0,6.96-.33,9.36-.98,2.4-.65,4.15-1.53,5.25-2.63s1.65-2.37,1.65-3.81-.6-2.63-1.8-3.76c-1.2-1.13-3.34-1.9-6.43-2.31l-17.7-2.37c-6.65-.82-11.58-2.43-14.77-4.83-3.19-2.4-4.78-5.69-4.78-9.88,0-2.33.58-4.49,1.75-6.48,1.17-1.99,2.92-3.7,5.25-5.14,2.33-1.44,5.26-2.57,8.8-3.4,3.53-.82,7.67-1.23,12.4-1.23,6.24,0,11.39.65,15.43,1.95,4.05,1.3,7.12,3.14,9.21,5.51,2.09,2.37,3.38,5.13,3.86,8.28h-13.07c-.34-1.3-1.06-2.45-2.16-3.45-1.1-.99-2.74-1.8-4.94-2.42-2.2-.62-5.08-.93-8.64-.93-3.29,0-6.05.29-8.28.87-2.23.58-3.88,1.37-4.94,2.37-1.06.99-1.6,2.18-1.6,3.55,0,1.58.69,2.81,2.06,3.7,1.37.89,3.36,1.51,5.97,1.85l18.21,2.47c3.84.48,7.24,1.3,10.19,2.47,2.95,1.17,5.25,2.75,6.89,4.73,1.65,1.99,2.47,4.63,2.47,7.92,0,2.81-.69,5.26-2.06,7.36-1.37,2.09-3.34,3.84-5.92,5.25-2.57,1.41-5.68,2.47-9.31,3.19-3.64.72-7.75,1.08-12.35,1.08Z"/>
    </g>
    <path class="cls-3" d="M35.18,523.05c-7,0-13.07-1.17-18.21-3.5-5.14-2.33-9.11-5.59-11.88-9.78-2.78-4.18-4.17-9.09-4.17-14.71,0-3.29.51-6.38,1.54-9.26,1.03-2.88,2.5-5.45,4.42-7.72,1.92-2.26,4.29-4.2,7.1-5.81,2.81-1.61,5.98-2.85,9.52-3.7,3.53-.86,7.42-1.29,11.68-1.29,6.03,0,11.32.79,15.85,2.37,4.53,1.58,8.18,3.77,10.96,6.59,2.78,2.81,4.51,6.11,5.2,9.88h-13.38c-.82-1.71-2.04-3.27-3.65-4.68-1.61-1.4-3.67-2.54-6.17-3.39-2.5-.86-5.44-1.29-8.8-1.29-2.81,0-5.33.31-7.56.93-2.23.62-4.18,1.46-5.87,2.52-1.68,1.06-3.09,2.37-4.22,3.91-1.13,1.54-1.97,3.24-2.52,5.09-.55,1.85-.82,3.81-.82,5.86,0,3.57.79,6.72,2.37,9.47,1.58,2.75,3.91,4.94,7,6.59,3.09,1.65,6.96,2.47,11.63,2.47,5.01,0,8.99-.91,11.94-2.73,2.95-1.82,5.18-4.03,6.69-6.64h13.38c-.82,3.7-2.61,6.98-5.35,9.83-2.74,2.85-6.36,5.06-10.86,6.64-4.49,1.58-9.76,2.37-15.79,2.37Z"/>
    <path class="cls-3" d="M108.03,523.05c-7,0-13.07-1.15-18.21-3.45-5.14-2.3-9.11-5.56-11.88-9.77-2.78-4.22-4.17-9.14-4.17-14.77,0-3.29.51-6.38,1.54-9.26,1.03-2.88,2.52-5.45,4.48-7.72,1.95-2.26,4.32-4.22,7.1-5.86s5.95-2.88,9.52-3.7c3.57-.82,7.44-1.23,11.63-1.23,7.06,0,13.17,1.15,18.32,3.45,5.14,2.3,9.09,5.52,11.83,9.67,2.74,4.15,4.12,9.04,4.12,14.66,0,3.43-.5,6.58-1.49,9.47-.99,2.88-2.47,5.46-4.42,7.72-1.95,2.26-4.32,4.2-7.1,5.81-2.78,1.61-5.95,2.85-9.52,3.7-3.57.86-7.48,1.29-11.73,1.29ZM108.03,513.58c2.81,0,5.33-.31,7.56-.93,2.23-.62,4.18-1.49,5.86-2.62,1.68-1.13,3.09-2.45,4.22-3.96,1.13-1.51,1.97-3.21,2.52-5.09.55-1.89.82-3.86.82-5.92,0-3.43-.77-6.53-2.31-9.31-1.54-2.78-3.86-4.97-6.95-6.58-3.09-1.61-7-2.42-11.73-2.42-2.74,0-5.23.31-7.46.93-2.23.62-4.18,1.48-5.86,2.57-1.68,1.1-3.09,2.42-4.22,3.96-1.13,1.54-1.97,3.23-2.52,5.04-.55,1.82-.82,3.76-.82,5.81,0,3.43.77,6.55,2.31,9.36,1.54,2.81,3.88,5.04,7,6.69,3.12,1.65,6.98,2.47,11.58,2.47Z"/>
    <path class="cls-3" d="M150.55,521.61v-52.89h13v11.19s2.2-3.85,4.73-6.04c2.53-2.19,5.53-3.84,9-4.94,3.47-1.1,7.24-1.65,11.34-1.65s7.75.55,10.97,1.65c3.22,1.1,5.95,2.69,8.17,4.78,2.22,2.09,3.92,4.7,5.1,7.82,1.18,3.12,1.77,6.71,1.77,10.75v29.32h-13v-26.75c0-3.7-.64-6.9-1.92-9.57-1.28-2.68-3.24-4.73-5.88-6.17-2.64-1.44-6-2.16-10.09-2.16s-7.65.81-10.66,2.42c-3.02,1.61-5.36,3.81-7.02,6.58-1.66,2.78-2.5,5.88-2.5,9.31v26.34h-13Z"/>
    <path class="cls-3" d="M330.38,523.05c-7,0-13.07-1.17-18.21-3.5-5.14-2.33-9.11-5.59-11.88-9.78-2.78-4.18-4.17-9.09-4.17-14.71,0-3.29.51-6.38,1.54-9.26,1.03-2.88,2.5-5.45,4.42-7.72,1.92-2.26,4.29-4.2,7.1-5.81,2.81-1.61,5.98-2.85,9.52-3.7,3.53-.86,7.42-1.29,11.68-1.29,6.03,0,11.32.79,15.85,2.37,4.52,1.58,8.18,3.77,10.96,6.59,2.78,2.81,4.51,6.11,5.2,9.88h-13.38c-.82-1.71-2.04-3.27-3.65-4.68-1.61-1.4-3.67-2.54-6.17-3.39-2.51-.86-5.44-1.29-8.8-1.29-2.81,0-5.33.31-7.56.93-2.23.62-4.18,1.46-5.87,2.52-1.68,1.06-3.09,2.37-4.22,3.91-1.13,1.54-1.97,3.24-2.52,5.09-.55,1.85-.82,3.81-.82,5.86,0,3.57.79,6.72,2.37,9.47,1.58,2.75,3.91,4.94,7,6.59,3.09,1.65,6.96,2.47,11.63,2.47,5.01,0,8.98-.91,11.94-2.73,2.95-1.82,5.18-4.03,6.69-6.64h13.38c-.82,3.7-2.61,6.98-5.35,9.83-2.74,2.85-6.36,5.06-10.86,6.64-4.49,1.58-9.76,2.37-15.79,2.37Z"/>
    <path class="cls-3" d="M288.82,490.19s.29-.08.29-.08c-1.7-10.32-8.66-18.09-18.66-21.04-4.08-1.2-8.56-1.8-13.43-1.8-4.25,0-8.15.43-11.68,1.29-3.53.86-6.67,2.09-9.41,3.7-2.74,1.61-5.08,3.55-7,5.81-1.92,2.26-3.4,4.84-4.42,7.72-1.03,2.88-1.54,5.97-1.54,9.26,0,5.63,1.39,10.53,4.17,14.71,2.78,4.19,6.7,7.44,11.78,9.78,5.08,2.33,11.04,3.5,17.9,3.5,6.45,0,11.85-.74,16.21-2.21,4.36-1.47,7.79-3.43,10.29-5.87,2.5-2.43,4.27-5.2,5.3-8.28h-13.38c-1.51,2.33-3.74,4.11-6.69,5.35-2.95,1.24-6.76,1.85-11.42,1.85s-8.59-.8-11.78-2.42c-3.19-1.61-5.57-3.84-7.15-6.69-.16-.29-.28-.61-.43-.91,0,0,51.06-13.68,51.06-13.68ZM236.69,488.94c.58-1.89,1.44-3.6,2.57-5.14,1.13-1.54,2.55-2.86,4.27-3.96,1.71-1.1,3.69-1.94,5.92-2.52,2.23-.58,4.71-.88,7.46-.88s5.23.29,7.46.88c2.23.58,4.2,1.46,5.92,2.62,1.71,1.17,3.09,2.61,4.12,4.32.28.46.52.94.75,1.45,0,0,0,0,0,0l-39.27,10.52c-.02-.39-.06-.77-.06-1.17,0-2.19.29-4.23.87-6.12Z"/>
    <path class="cls-2" d="M381.6,512.96h0c0-4.77,3.87-8.64,8.64-8.64h.1c4.77,0,8.64,3.87,8.64,8.64h0c0,4.77-3.87,8.64-8.64,8.64h-.1c-4.77,0-8.64-3.87-8.64-8.64Z"/>
    <path class="cls-2" d="M419.23,521.61v-56.49h-30.25v-16.98h83.14v16.98h-30.15v56.49h-22.74Z"/>
    <path class="cls-2" d="M533.85,521.61h24.8l-35.4-73.47h-26.96l-35.5,73.47h22.95l6.47-14.2h37.2l6.44,14.2ZM497.71,490.94l11.13-24.43,11.09,24.43h-22.22Z"/>
    <g>
      <path class="cls-3" d="M425.61,574.02c.66-.64,1.59-1.31,2.77-2.01,1.2-.72,2.67-1.47,4.37-2.25l5.64-2.6c2.54-1.18,4.61-2.34,6.15-3.43,1.57-1.12,2.73-2.31,3.43-3.55.71-1.25,1.07-2.64,1.07-4.15,0-1.95-.62-3.64-1.85-5.04-1.2-1.37-2.93-2.44-5.14-3.16-2.18-.72-4.83-1.08-7.89-1.08s-5.78.38-8,1.12c-2.25.76-4.04,1.88-5.32,3.34-1.29,1.47-2.02,3.29-2.17,5.4l-.03.45h5.3l.06-.35c.3-1.82,1.28-3.18,2.99-4.13,1.73-.97,4.16-1.47,7.22-1.47s5.4.45,7.03,1.34c1.57.86,2.34,2.02,2.34,3.58,0,.8-.22,1.55-.66,2.24-.45.71-1.2,1.44-2.22,2.15-1.06.74-2.47,1.52-4.19,2.32l-6.96,3.26c-1.98.92-3.69,1.84-5.1,2.74-1.41.91-2.6,1.84-3.51,2.77-.93.94-1.62,1.93-2.07,2.95-.45,1.02-.67,2.11-.67,3.25v1.96h31.16v-4.36h-24.76c.24-.43.58-.86,1.03-1.29Z"/>
      <path class="cls-3" d="M479.15,548.78c-2.59-1.32-5.61-1.98-8.98-1.98-1.67,0-3.27.17-4.76.49-1.5.33-2.9.83-4.18,1.49-1.27.66-2.45,1.47-3.48,2.42-1.04.95-1.93,2.07-2.66,3.32-.72,1.25-1.28,2.64-1.65,4.14-.37,1.49-.56,3.13-.56,4.86,0,3.47.75,6.49,2.22,8.98,1.47,2.5,3.54,4.44,6.14,5.78,2.59,1.33,5.59,2.01,8.94,2.01,1.66,0,3.27-.17,4.79-.52,1.51-.34,2.92-.85,4.2-1.51,1.28-.66,2.45-1.48,3.46-2.42,1.02-.95,1.91-2.06,2.65-3.31.74-1.25,1.3-2.64,1.68-4.14.37-1.5.56-3.13.56-4.86,0-3.5-.75-6.53-2.22-9.01-1.48-2.48-3.54-4.41-6.14-5.73ZM482.09,563.52c0,1.25-.13,2.46-.39,3.56-.26,1.1-.63,2.13-1.11,3.05-.48.92-1.07,1.74-1.76,2.46-.69.72-1.48,1.33-2.35,1.82-.87.49-1.84.87-2.89,1.13-1.05.26-2.2.39-3.43.39-2.41,0-4.53-.51-6.29-1.51-1.76-1-3.14-2.44-4.11-4.28-.98-1.85-1.47-4.08-1.47-6.62,0-1.28.13-2.5.38-3.61.26-1.11.63-2.13,1.09-3.03.46-.9,1.05-1.72,1.74-2.44.68-.71,1.47-1.32,2.34-1.8.88-.48,1.86-.85,2.92-1.11,1.07-.26,2.21-.39,3.41-.39,2.41,0,4.54.5,6.32,1.49,1.77.98,3.16,2.41,4.13,4.24.98,1.84,1.47,4.07,1.47,6.64Z"/>
      <path class="cls-3" d="M498.46,574.02c.66-.64,1.59-1.31,2.77-2.01,1.2-.72,2.67-1.47,4.37-2.25l5.64-2.6c2.54-1.18,4.61-2.34,6.15-3.43,1.57-1.12,2.73-2.31,3.43-3.55.71-1.25,1.07-2.64,1.07-4.15,0-1.95-.62-3.64-1.85-5.04-1.2-1.37-2.93-2.44-5.14-3.16-2.18-.72-4.83-1.08-7.89-1.08s-5.78.38-8,1.12c-2.25.76-4.04,1.88-5.32,3.34-1.29,1.47-2.02,3.29-2.17,5.4l-.03.45h5.3l.06-.35c.3-1.82,1.28-3.18,2.99-4.13,1.73-.97,4.16-1.47,7.22-1.47s5.4.45,7.03,1.34c1.57.86,2.34,2.02,2.34,3.58,0,.8-.22,1.55-.66,2.24-.45.71-1.2,1.44-2.22,2.15-1.06.74-2.47,1.52-4.19,2.32l-6.96,3.26c-1.98.92-3.69,1.84-5.1,2.74-1.41.91-2.6,1.84-3.51,2.77-.93.94-1.62,1.93-2.07,2.95-.45,1.02-.67,2.11-.67,3.25v1.96h31.16v-4.36h-24.76c.24-.43.58-.86,1.03-1.29Z"/>
      <path class="cls-3" d="M556.91,563.28c-1.15-1.65-2.88-2.95-5.15-3.85-2.24-.9-5.1-1.35-8.49-1.35-2.2,0-4.21.25-5.97.74-1.78.5-3.31,1.23-4.55,2.19-.58.45-1.1.94-1.54,1.49.1-1.38.28-2.63.55-3.75.41-1.68,1.08-3.11,1.99-4.25.9-1.12,2.11-1.98,3.59-2.54,1.5-.57,3.37-.85,5.54-.85s4.06.18,5.4.54c1.31.35,2.3.83,2.96,1.42.64.59,1.07,1.31,1.29,2.13l.08.31h5.38l-.06-.47c-.18-1.54-.79-2.96-1.81-4.22-1.01-1.26-2.6-2.27-4.7-3-2.08-.72-4.89-1.08-8.36-1.08-1.81,0-3.51.16-5.06.47-1.56.32-3,.8-4.27,1.45-1.28.65-2.43,1.46-3.41,2.41-.98.95-1.82,2.07-2.5,3.34-.68,1.26-1.19,2.69-1.54,4.25-.34,1.55-.52,3.27-.52,5.11,0,3.93.6,7.13,1.78,9.53,1.2,2.43,3.06,4.22,5.54,5.33,2.44,1.09,5.57,1.64,9.32,1.64,2.75,0,5.17-.26,7.2-.78,2.05-.53,3.75-1.29,5.06-2.27,1.32-.99,2.33-2.18,2.99-3.55.66-1.36.99-2.9.99-4.57,0-2.22-.58-4.18-1.73-5.84ZM553.22,569.12c0,.9-.2,1.77-.6,2.59-.39.81-1.03,1.54-1.88,2.16-.87.63-1.99,1.13-3.35,1.5-1.37.37-3.02.56-4.91.56-2.52,0-4.6-.32-6.19-.96-1.56-.63-2.72-1.47-3.45-2.5-.72-1.03-1.09-2.15-1.09-3.35,0-.9.21-1.76.62-2.57.41-.8,1.05-1.52,1.9-2.14.87-.63,1.99-1.13,3.35-1.5,1.37-.37,3.02-.56,4.92-.56,2.55,0,4.64.32,6.21.96,1.55.63,2.69,1.46,3.41,2.47.71,1.01,1.07,2.13,1.07,3.33Z"/>
    </g>
  </g>
</svg>