<?xml version="1.0" encoding="UTF-8"?>
<svg id="Camada_1" data-name="Camada 1" xmlns="http://www.w3.org/2000/svg" viewBox="0 0 1350 1350">
  <defs>
    <style>
      .cls-1 {
        fill: #f9820b;
      }
    </style>
  </defs>
  <path class="cls-1" d="M888.63,675.77c-57.67,0-107.89-46.66-109.75-104.57-1.73-53.58-43.6-97.22-97.19-97.22s-97.19,43.61-97.19,97.22,44.81,85.88,97.19,97.19c60.16,13,109.73,46.91,109.73,104.57s-45.77,115.65-95.37,130.96c-42.33,13.07-79.96,37.56-79.96,81.88s36.04,80.35,80.35,80.35,77.95-36.11,80.35-80.35c2.71-49.88,54.18-115.65,111.85-115.65,53.59,0,97.19-43.6,97.19-97.19s-43.6-97.19-97.19-97.19Z"/>
  <path class="cls-1" d="M592.11,689.29c-57.62-17.22-112.04-81.61-108.15-140.49,3.35-50.61,34.67-80.08,85.29-95.27,56.15-16.84,84.85-38.06,84.85-84.85s-38.06-84.85-84.85-84.85-84.85,38.06-84.85,84.85c0,52.85-48.33,83.43-107.36,83.43-52.24,0-94.74,42.51-94.74,94.76s42.5,94.74,94.74,94.74c59.03,0,120.32,83.4,120.32,142.41,0,52.24,42.5,94.74,94.74,94.74s94.74-42.5,94.74-94.74-35.77-77.11-94.74-94.74Z"/>
  <path class="cls-1" d="M976.69,467.98c-50.18,0-91.01,40.83-91.01,91.01s40.83,90.99,91.01,90.99,90.99-40.82,90.99-90.99-40.82-91.01-90.99-91.01Z"/>
</svg>